<?xml version="1.0" standalone="no"?>
<!DOCTYPE svg PUBLIC "-//W3C//DTD SVG 20010904//EN"
 "http://www.w3.org/TR/2001/REC-SVG-20010904/DTD/svg10.dtd">
<svg version="1.0" xmlns="http://www.w3.org/2000/svg"
 width="1254.000000pt" height="1254.000000pt" viewBox="0 0 1254.000000 1254.000000"
 preserveAspectRatio="xMidYMid meet">

<g transform="translate(0.000000,1254.000000) scale(0.100000,-0.100000)"
fill="#000000" stroke="none">
<path d="M0 6270 l0 -6270 6270 0 6270 0 0 6270 0 6270 -6270 0 -6270 0 0
-6270z m6130 1914 c0 -202 -2 -244 -13 -236 -10 8 -40 6 -112 -9 -430 -88
-792 -364 -992 -756 -28 -54 -63 -134 -78 -178 -31 -92 -76 -320 -68 -344 5
-14 4 -14 -12 1 -18 17 -18 21 0 115 10 54 26 127 36 162 19 66 20 96 1 42 -8
-23 -17 -30 -39 -30 -15 0 -43 -2 -61 -4 -18 -2 -35 0 -38 5 -3 4 3 8 13 9 12
1 10 3 -7 8 -19 6 -27 3 -33 -12 -4 -12 -13 -17 -23 -13 -9 3 -27 6 -40 6 -16
0 -23 4 -18 11 3 6 19 9 35 5 16 -3 29 -1 29 4 0 6 -5 10 -11 10 -5 0 -7 5 -3
12 4 6 3 8 -3 5 -5 -3 -26 -7 -46 -9 -33 -2 -51 -21 -28 -30 5 -1 3 -9 -5 -15
-11 -11 -13 -7 -10 22 1 19 5 37 8 41 7 7 -31 54 -44 54 -4 0 -8 -4 -8 -10 0
-5 6 -10 14 -10 16 0 29 -27 20 -41 -3 -6 -15 -7 -27 -4 -12 2 -16 2 -9 -1 22
-10 13 -24 -15 -23 -16 0 -22 3 -15 6 19 8 14 23 -8 23 -28 0 -26 36 3 45 19
6 19 8 4 12 -9 2 -15 9 -11 14 3 5 10 7 15 4 5 -4 9 -2 9 4 0 5 -5 11 -10 13
-7 2 -5 19 5 47 8 24 13 46 11 49 -3 2 -21 -47 -40 -109 -32 -99 -64 -245 -80
-362 l-5 -37 201 0 c110 1 203 -1 206 -4 3 -4 -89 -6 -204 -6 -152 0 -213 -3
-222 -12 -10 -10 -11 -6 -7 17 2 17 9 66 15 110 47 350 190 681 412 953 71 86
220 233 303 298 150 117 363 236 525 292 134 46 359 97 453 101 l27 1 0 -246z
m552 231 c536 -81 1003 -384 1305 -847 147 -224 253 -509 283 -753 20 -174 20
-166 0 -155 -11 6 -112 10 -233 10 l-214 0 -7 60 c-16 143 -91 365 -167 493
-225 382 -567 633 -979 717 -54 11 -101 20 -104 20 -3 0 -6 99 -6 219 0 136
-4 222 -10 226 -17 10 -11 25 10 25 11 0 66 -7 122 -15z m-1812 -33 c0 -5 -24
-16 -52 -25 -46 -15 -70 -34 -184 -149 -71 -73 -163 -176 -204 -228 -72 -94
-210 -296 -210 -308 0 -4 -552 -6 -1227 -4 -1351 3 -1311 4 -1420 -58 -73 -42
-148 -122 -186 -199 -31 -64 -32 -70 -32 -191 1 -106 4 -133 23 -180 22 -55
70 -128 56 -85 -4 11 -4 17 0 14 4 -4 8 -16 11 -27 4 -23 68 -85 124 -120 83
-52 77 -52 941 -56 891 -4 868 -2 1036 -70 171 -69 355 -220 456 -372 117
-176 208 -482 208 -695 0 -79 -26 -241 -56 -344 -25 -89 -106 -271 -138 -310
-9 -11 4 20 28 68 93 184 128 332 130 542 1 171 -12 256 -59 401 -30 91 -99
244 -110 244 -6 0 6 -30 26 -65 23 -39 79 -180 79 -197 -1 -7 -6 -3 -14 10
-12 22 -13 22 -27 6 -12 -16 -12 -17 4 -11 9 3 17 2 17 -3 0 -6 -5 -10 -11
-10 -5 0 -8 -4 -4 -10 3 -5 12 -7 19 -4 8 3 17 1 20 -4 3 -5 0 -10 -7 -9 -6 0
-28 -1 -47 -2 -34 -2 -34 -2 -12 -14 21 -12 21 -13 -15 -14 -21 0 -31 2 -23 6
8 3 15 13 15 21 0 8 8 14 18 14 9 -1 17 2 17 7 0 4 -12 8 -27 8 -158 1 -177 2
-160 12 10 6 25 8 33 5 8 -3 14 -1 14 5 0 5 -19 9 -44 7 -24 -2 -42 -6 -40
-10 2 -4 0 -9 -5 -12 -5 -3 -11 1 -15 9 -6 18 -33 20 -38 4 -3 -9 -10 -9 -27
0 -14 8 -38 10 -64 6 -32 -5 -39 -4 -31 5 7 6 37 12 68 13 32 1 54 6 52 12 -1
6 -16 9 -32 8 -16 -1 -44 -3 -61 -5 -18 -1 -33 -6 -33 -10 0 -5 -9 -4 -21 2
-11 7 -31 9 -43 6 -11 -3 -28 0 -36 5 -12 9 -10 10 8 6 16 -4 22 0 23 11 0 11
2 12 6 5 2 -7 12 -13 21 -12 11 0 12 2 5 6 -27 10 -12 24 19 18 27 -6 30 -6
17 7 -8 7 -30 15 -49 16 -27 2 -32 0 -20 -9 12 -8 10 -9 -7 -4 -24 7 -33 -9
-10 -18 6 -3 -21 -4 -61 -3 -40 1 -75 -1 -78 -6 -3 -4 -11 -8 -17 -8 -7 0 -3
8 8 16 14 11 33 14 65 11 25 -3 39 -3 32 0 -6 2 -9 9 -6 15 4 6 -2 8 -16 3
-16 -5 -20 -4 -15 5 4 7 -5 5 -23 -4 -17 -9 -39 -16 -49 -15 -16 0 -16 1 1 8
18 7 18 8 3 14 -24 9 -21 34 6 41 33 9 69 7 63 -3 -3 -5 1 -11 9 -15 8 -3 17
-1 20 4 4 6 1 10 -5 10 -6 0 -9 4 -6 8 3 5 20 7 38 5 24 -3 29 -2 19 5 -8 6
-21 8 -30 4 -14 -5 -13 -2 2 15 28 32 20 41 -9 10 -19 -21 -32 -27 -48 -23
-13 3 -38 1 -57 -4 -37 -11 -346 -16 -356 -6 -4 3 54 7 128 7 74 1 141 3 149
4 8 1 35 3 60 4 37 1 42 4 27 12 -11 6 -44 8 -80 5 -42 -4 -57 -3 -47 4 20 13
137 13 145 0 9 -14 52 -13 61 2 5 7 2 9 -8 5 -9 -3 -34 1 -55 8 -22 8 -54 12
-71 10 -34 -4 -51 10 -33 28 8 8 11 6 11 -7 0 -14 3 -16 13 -7 8 6 17 8 21 4
4 -4 4 0 1 9 -6 15 -1 17 30 13 20 -3 45 -10 55 -15 28 -15 38 -11 16 5 -11 8
-14 15 -8 15 7 0 12 4 12 9 0 5 -8 7 -17 5 -10 -2 -36 -5 -58 -8 -22 -2 -44
-4 -50 -6 -19 -5 -46 0 -42 8 3 4 -27 7 -66 6 -40 0 -78 1 -84 4 -14 4 -18 31
-5 33 31 6 90 5 102 -2 9 -5 -7 -9 -44 -9 -33 0 -57 -3 -53 -6 8 -8 137 -11
137 -3 0 3 -11 12 -25 19 -14 7 -25 17 -25 21 0 4 -17 6 -37 4 l-38 -5 35 9
c19 5 38 7 42 5 3 -2 9 0 13 6 4 6 13 7 23 1 9 -5 37 -5 62 -1 48 8 30 13 -35
10 -22 -1 -36 2 -32 6 5 5 14 9 20 10 7 0 20 2 30 2 10 1 16 6 12 11 -6 11
-60 -2 -82 -20 -12 -10 -16 -10 -24 2 -14 22 -11 33 6 19 8 -6 20 -8 27 -4 9
6 5 10 -12 15 -15 4 -34 1 -47 -7 -26 -16 -37 -18 -28 -5 3 5 1 12 -4 16 -9 5
-31 -23 -31 -39 0 -3 17 -4 38 -1 21 3 31 1 24 -4 -16 -10 -119 -8 -129 3 -4
4 0 4 8 1 10 -4 32 8 58 30 31 25 52 35 78 35 23 0 32 -4 27 -12 -5 -7 -3 -8
6 -3 10 6 9 11 -5 22 -11 7 -23 13 -29 13 -16 0 -86 33 -86 41 0 4 22 6 50 4
28 -2 47 1 44 6 -8 13 -98 11 -112 -3 -6 -6 -15 -8 -19 -4 -4 4 3 16 17 27
l25 20 -33 -16 c-29 -14 -33 -14 -38 0 -4 8 -11 15 -18 14 -22 -3 -36 1 -36
10 0 5 9 7 20 4 11 -3 20 -3 20 0 0 14 -42 13 -56 -1 -15 -14 -16 -14 -12 4 4
23 61 32 84 13 8 -6 17 -10 19 -7 13 13 -30 31 -67 30 -44 -2 -43 13 2 21 14
3 6 4 -16 3 -23 0 -47 -7 -55 -15 -11 -13 -11 -14 4 -8 9 3 19 2 22 -4 10 -15
-24 -23 -49 -11 -16 7 -27 6 -39 -3 -14 -10 -23 -10 -42 -1 -36 16 -31 21 23
20 41 0 52 4 86 35 22 21 36 29 33 19 -4 -12 -2 -15 9 -11 11 4 12 9 4 18 -8
9 -7 14 2 18 10 4 10 6 0 6 -8 1 -27 -12 -42 -29 -29 -31 -40 -34 -98 -32 -20
1 -31 6 -27 12 4 6 12 10 18 9 29 -4 77 2 77 9 0 4 -25 5 -55 4 -35 -3 -55 0
-55 7 0 7 22 11 55 11 30 0 55 5 55 10 0 10 -35 16 -55 9 -22 -6 -95 -5 -95 2
0 4 6 9 13 12 6 2 -5 8 -26 12 -21 4 -41 5 -44 1 -4 -3 6 -6 20 -6 15 0 27 -4
27 -10 0 -5 -15 -9 -34 -7 -22 1 -32 6 -29 14 3 7 -6 17 -18 22 -17 7 20 10
123 10 88 1 149 -3 153 -9 3 -5 18 -9 33 -9 17 1 21 3 9 6 -9 2 -15 9 -12 14
5 8 -1011 17 -1175 10 -361 -15 -590 284 -479 624 36 107 136 223 242 280 90
48 146 53 581 54 176 1 317 3 314 6 -3 3 -23 7 -44 8 -34 2 -39 5 -37 25 l3
23 -26 -26 c-21 -21 -34 -25 -72 -24 -46 2 -72 13 -72 30 0 17 20 9 21 -8 0
-14 2 -15 6 -3 3 8 11 19 17 23 12 9 -38 4 -69 -8 -13 -4 -16 -4 -7 2 15 11 5
43 -13 43 -24 0 -27 -20 -3 -21 13 0 17 -3 10 -6 -21 -8 -62 6 -62 22 0 8 -5
15 -10 15 -6 0 -9 -5 -8 -12 4 -16 -98 -33 -126 -20 -16 7 -8 9 37 9 34 0 63
5 70 13 10 10 5 11 -25 7 -21 -3 -40 -1 -44 4 -10 17 3 22 57 23 30 1 54 6 56
13 7 19 -15 24 -44 10 -29 -15 -57 -12 -47 4 3 5 1 9 -4 9 -6 0 -13 -7 -16
-16 -4 -9 -9 -14 -12 -11 -3 3 -1 15 6 26 7 14 7 21 0 21 -5 0 -10 -6 -10 -12
0 -10 -3 -9 -9 1 -5 7 -13 11 -19 7 -5 -3 -16 2 -23 11 -12 15 -12 16 3 11 11
-5 15 -2 13 10 -1 9 5 26 14 36 9 11 10 16 4 12 -7 -4 -13 -2 -13 3 0 6 7 11
15 11 8 0 15 -5 15 -11 0 -6 10 -9 23 -8 12 2 32 -3 44 -9 19 -11 22 -10 17 3
-4 8 -1 15 5 15 7 0 14 -7 17 -15 4 -8 17 -13 34 -12 15 1 26 6 23 10 -2 4
-13 5 -24 2 -15 -5 -17 -3 -12 11 4 12 3 15 -5 10 -7 -4 -12 -1 -12 8 0 20 -9
20 -24 2 -9 -13 -17 -12 -51 4 -40 20 -40 20 -16 0 17 -15 19 -20 8 -20 -9 0
-19 5 -23 11 -4 7 -20 8 -43 3 -20 -4 -44 -7 -53 -6 -10 0 -18 -6 -18 -14 0
-8 -4 -14 -9 -14 -10 0 -9 19 1 35 4 6 -20 9 -65 8 -66 -2 -69 -1 -32 8 22 6
50 8 63 6 12 -2 22 0 22 4 0 5 9 9 20 9 12 0 17 -5 14 -13 -4 -10 3 -12 28 -9
32 5 32 6 8 13 -21 6 -22 7 -5 9 11 1 25 2 32 1 6 -1 15 4 19 10 5 8 3 9 -6 4
-9 -6 -12 -4 -8 7 4 8 1 15 -5 16 -7 0 -24 3 -39 5 -16 2 -28 0 -28 -6 0 -5 9
-7 19 -4 10 2 25 1 32 -4 10 -6 8 -9 -8 -10 -43 -3 -48 -2 -66 6 -17 7 -17 9
-2 26 16 16 16 17 -4 12 -12 -3 -21 -12 -21 -19 0 -9 -12 -14 -36 -14 -19 0
-33 4 -30 9 3 5 15 7 25 4 10 -3 22 0 25 6 10 15 -57 14 -71 0 -9 -9 -12 -7
-11 7 2 17 9 20 49 19 51 -1 104 12 64 15 -11 1 -39 1 -62 0 -23 -1 -48 2 -55
7 -19 12 -82 11 -91 -1 -5 -7 -7 -5 -4 4 2 8 13 15 24 15 12 0 25 3 29 8 4 4
-3 7 -15 7 -13 0 -19 4 -16 10 4 6 15 8 24 5 10 -3 23 1 30 8 9 12 5 14 -21
12 -48 -4 -48 -4 -48 -20 0 -16 -20 -16 -32 -1 -13 19 12 48 36 42 17 -4 22
-1 22 14 0 22 -21 27 -29 8 -4 -9 -8 -10 -14 -2 -13 17 -118 40 -126 27 -3 -4
9 -9 27 -10 18 -1 47 -7 65 -15 l32 -13 -22 -24 c-18 -19 -19 -25 -8 -33 11
-7 9 -8 -6 -5 -11 2 -19 8 -18 13 1 5 -10 11 -24 12 -33 3 -44 12 -15 12 12 0
22 5 22 10 0 6 -7 10 -16 10 -8 0 -12 5 -8 11 3 6 -5 3 -19 -6 -15 -9 -31 -14
-36 -11 -5 4 -12 2 -16 -4 -4 -6 6 -10 22 -11 15 0 22 -3 14 -6 -13 -5 -89 14
-104 28 -5 3 17 6 47 5 31 -1 56 0 56 1 0 14 -39 41 -55 38 -11 -2 -24 -4 -30
-4 -5 -1 -3 -6 5 -11 9 -6 10 -10 3 -10 -7 0 -16 8 -21 17 -9 15 -15 15 -51 4
-23 -6 -45 -10 -49 -7 -4 2 -18 -2 -32 -11 -17 -10 -19 -12 -5 -8 11 4 36 8
56 10 20 2 40 5 45 7 5 2 9 -2 9 -7 0 -6 -6 -9 -12 -9 -17 2 -17 -13 0 -20 6
-3 -3 -3 -22 0 -23 4 -36 2 -42 -7 -7 -11 -13 -11 -36 2 -28 16 -58 15 -48 -2
4 -5 -1 -6 -9 -3 -15 6 -72 -23 -109 -55 -17 -14 -17 -16 -1 -21 16 -6 15 -7
-4 -12 -12 -4 -20 -2 -16 3 9 15 -8 10 -30 -8 l-21 -18 19 23 c43 50 210 146
319 181 34 12 41 11 59 -6 12 -10 18 -13 15 -6 -4 6 -1 14 5 16 7 3 2 6 -12 6
-20 1 -22 3 -10 11 24 15 -2 12 -63 -9 -83 -29 -223 -104 -297 -160 -83 -63
-224 -208 -278 -288 -92 -135 -172 -325 -202 -476 -7 -32 -15 -107 -19 -165
l-8 -107 -2 95 c-7 481 337 965 805 1133 182 65 54 61 1849 67 897 3 1631 6
1633 8 1 1 2 -2 2 -6z m6470 -33 c401 -112 706 -433 812 -856 19 -75 22 -116
22 -278 0 -159 -3 -205 -21 -280 -23 -95 -82 -269 -90 -262 -2 3 3 22 11 42
29 67 65 218 77 319 48 398 -112 826 -396 1059 -30 25 -16 7 37 -46 101 -100
179 -210 152 -215 -9 -2 -21 1 -27 7 -6 6 -24 11 -40 11 -15 0 -26 3 -24 8 3
4 -38 3 -91 -3 -82 -8 -91 -10 -58 -16 21 -3 47 -4 58 -2 10 3 18 0 18 -6 0
-6 5 -11 11 -11 8 0 7 5 -2 16 -12 14 -9 15 26 10 21 -4 44 -11 52 -17 7 -6
32 -11 55 -11 41 1 68 -11 68 -29 0 -5 -17 -8 -37 -8 -31 2 -33 3 -10 6 46 7
30 21 -22 20 -45 -2 -48 -3 -28 -15 20 -12 19 -12 -13 -6 -19 3 -40 11 -47 16
-14 11 -55 7 -65 -6 -4 -6 -13 -4 -22 3 -9 8 -16 9 -16 4 0 -6 -11 -8 -24 -6
-13 3 -33 0 -44 -6 -14 -7 -23 -8 -27 -1 -3 5 1 10 9 10 20 0 29 17 19 35 -8
13 -11 13 -28 1 -19 -14 -19 -15 4 -9 18 5 22 3 16 -6 -4 -8 -22 -11 -45 -9
-26 2 -36 0 -33 -9 3 -6 11 -9 18 -7 7 3 16 1 19 -4 6 -10 -37 -8 -55 4 -8 5
-9 3 -4 -6 10 -15 -50 -4 -80 16 -14 9 -24 10 -35 3 -13 -9 -13 -10 2 -6 9 3
24 -3 34 -14 10 -11 24 -17 31 -15 7 3 13 1 13 -4 0 -15 -50 -12 -66 5 -8 8
-21 12 -30 8 -11 -4 -8 -9 13 -20 34 -17 82 -20 92 -5 9 15 113 10 119 -6 2
-8 -3 -10 -15 -5 -16 6 -16 5 -4 -10 17 -22 8 -22 -14 -1 -14 15 -17 14 -35
-8 -12 -16 -30 -25 -50 -26 -17 0 -28 4 -25 9 4 5 13 9 21 9 8 0 14 5 14 10 0
6 10 10 22 10 17 0 19 3 10 12 -9 9 -16 8 -30 -5 -14 -12 -39 -17 -93 -18 -66
-1 -70 -2 -34 -9 22 -5 48 -6 58 -4 9 3 17 1 17 -5 0 -6 -21 -11 -50 -11 -27
0 -50 -4 -50 -8 0 -5 50 -8 111 -8 61 1 113 -2 116 -6 4 -8 -23 -12 -62 -9
-17 1 -17 0 4 -13 14 -7 32 -12 40 -9 14 4 14 4 1 -6 -12 -9 -11 -11 10 -12
22 0 23 -1 5 -8 -12 -5 -25 -3 -33 6 -7 7 -20 13 -28 13 -8 0 -17 7 -20 15 -5
11 -22 15 -68 15 -69 0 -82 -6 -64 -27 9 -11 9 -17 -3 -24 -11 -7 -10 -9 6 -9
12 0 26 5 33 12 9 9 12 9 12 0 0 -15 -41 -32 -77 -32 -25 0 -25 -1 -10 -18 33
-36 10 -67 -26 -35 -18 15 -18 14 3 -15 24 -31 27 -32 87 -29 39 2 59 -1 54
-6 -6 -6 -31 -10 -56 -10 -56 0 -56 -19 1 -28 29 -5 32 -7 14 -9 -14 -1 -28
-2 -32 -1 -11 1 -10 -13 1 -25 4 -5 18 -37 29 -72 38 -114 11 -291 -62 -417
-34 -58 -114 -137 -172 -171 -26 -15 -76 -37 -113 -48 -62 -19 -100 -20 -681
-26 l-615 -6 515 -2 c455 -3 510 -5 476 -17 -28 -10 -45 -11 -58 -4 -22 12
-193 8 -172 -4 18 -10 9 -27 -14 -27 -15 0 -15 2 -2 10 12 8 10 10 -10 10 -15
0 -20 3 -13 8 6 4 -28 8 -75 9 -59 1 -80 -2 -64 -8 12 -4 22 -12 22 -17 0 -11
-48 -3 -56 9 -3 5 -11 9 -17 9 -7 0 -6 -4 3 -10 13 -8 12 -10 -2 -10 -10 0
-18 5 -18 11 0 8 -5 7 -16 -2 -11 -9 -41 -12 -92 -11 -42 1 -81 -3 -88 -9 -19
-15 -57 -1 -49 18 4 13 3 14 -10 3 -9 -7 -29 -13 -44 -12 -16 0 -48 -6 -72
-13 -24 -8 -35 -14 -24 -14 11 0 29 4 40 8 23 9 47 3 39 -10 -3 -5 -1 -9 5 -9
5 0 11 5 13 12 5 13 48 19 48 6 0 -4 -9 -8 -20 -8 -11 0 -20 -4 -20 -10 0 -6
9 -6 25 0 15 6 26 6 30 -1 4 -5 11 -6 18 -2 6 3 32 6 59 6 26 -1 46 2 43 6 -4
7 15 6 73 -1 6 -1 12 -5 12 -10 0 -8 -21 -9 -162 -12 -72 -1 -106 -15 -42 -17
21 -1 48 -2 59 -3 11 -1 25 1 30 5 6 3 21 2 35 -2 l25 -7 -27 -1 c-16 -1 -28
-6 -28 -12 0 -5 -5 -7 -10 -4 -6 4 -38 8 -73 10 -60 3 -61 3 -32 -11 l30 -14
-33 3 c-18 2 -35 0 -38 -5 -10 -15 -26 -8 -20 10 5 15 4 14 -9 -2 -19 -25 -11
-35 26 -34 20 1 26 4 17 9 -8 6 -9 9 -2 9 6 0 17 -6 23 -14 9 -11 6 -15 -16
-19 -15 -3 -35 -1 -44 4 -9 4 -26 6 -38 4 -12 -2 -19 0 -16 5 3 5 1 11 -5 15
-5 3 -10 4 -10 1 0 -2 -3 -11 -6 -20 -5 -12 0 -16 20 -16 14 0 26 -4 26 -10 0
-16 -27 -12 -62 10 -36 22 -65 25 -88 10 -11 -8 -8 -9 12 -4 15 3 35 1 45 -6
17 -10 16 -11 -3 -7 -12 3 -28 0 -35 -5 -12 -7 -11 -9 1 -7 32 3 70 -1 70 -9
0 -15 -72 -30 -104 -21 -41 12 -59 11 -51 -2 4 -6 13 -8 21 -5 8 3 14 1 14 -5
0 -6 7 -9 15 -6 17 7 30 -9 15 -18 -6 -4 -17 -1 -25 5 -11 9 -18 9 -30 -4 -9
-9 -30 -16 -47 -16 -56 0 -158 -23 -158 -36 0 -16 -24 -24 -41 -13 -13 8 -5
13 16 9 6 -1 5 4 -2 11 -9 9 -16 9 -25 1 -8 -6 -29 -7 -55 -2 -45 8 -93 3 -93
-10 0 -4 12 -7 28 -8 51 0 127 -9 144 -17 18 -7 15 -25 -3 -25 -6 0 -8 4 -5 9
13 21 -28 20 -51 0 -12 -13 -23 -17 -23 -11 0 7 5 12 12 12 6 0 9 3 6 6 -4 3
-16 0 -29 -6 -19 -11 -21 -10 -15 5 5 14 2 16 -16 11 -13 -3 -32 -6 -43 -7
-11 -1 -4 -5 15 -9 31 -7 32 -7 8 -9 -33 -1 -38 -21 -6 -21 51 0 -9 -19 -70
-22 -20 -1 -28 -4 -20 -9 7 -4 9 -11 5 -15 -4 -4 -17 1 -29 12 -12 10 -18 13
-14 7 8 -14 -1 -16 -74 -14 -37 1 -42 -1 -27 -10 10 -6 25 -8 33 -5 7 3 23 -5
34 -17 19 -20 20 -22 3 -28 -14 -5 -12 -8 12 -14 61 -14 64 -20 8 -21 -35 0
-48 2 -33 6 22 5 23 7 7 13 -10 4 -27 3 -36 -3 -10 -5 -21 -7 -24 -3 -4 3 -13
0 -22 -7 -12 -10 -18 -10 -30 0 -9 8 -32 11 -59 8 -24 -3 -51 -1 -60 4 -12 7
-14 5 -10 -7 3 -8 7 -15 8 -15 0 -1 19 -3 41 -5 32 -3 35 -2 15 4 -21 8 -19 9
19 10 l45 1 -22 -20 c-12 -11 -26 -20 -31 -20 -5 0 -13 -4 -16 -10 -3 -5 2 -9
12 -8 36 3 126 -2 121 -7 -2 -3 -57 -7 -121 -10 -64 -3 -122 -6 -129 -7 -16
-4 -18 34 -3 44 17 13 -14 9 -38 -4 -12 -6 -43 -11 -69 -10 -27 0 -48 -3 -48
-9 0 -9 25 -14 45 -9 6 2 25 4 43 6 18 2 37 6 43 10 6 3 6 -2 -1 -12 -8 -13
-23 -19 -48 -18 -21 0 -48 -2 -62 -7 -20 -6 -15 -8 25 -10 28 -1 75 -1 105 0
38 1 50 -1 40 -8 -8 -5 -80 -9 -158 -8 -79 1 -146 -1 -149 -5 -4 -8 107 -13
242 -11 l80 2 -55 -10 c-30 -6 -63 -11 -72 -12 -10 -1 -20 -7 -22 -14 -6 -14
7 -13 68 2 19 5 31 4 36 -6 14 -22 0 -31 -42 -24 -31 6 -44 3 -60 -12 -20 -18
-21 -18 -13 6 6 18 4 22 -6 15 -11 -6 -11 -4 0 10 23 27 -1 36 -98 36 -66 0
-89 -4 -104 -17 -20 -18 -20 -18 -2 16 13 27 19 31 27 20 8 -11 9 -10 4 4 -3
10 0 28 8 40 7 12 29 52 49 90 38 70 43 91 9 35 -274 -455 -455 -751 -607
-998 -104 -168 -216 -350 -250 -405 -149 -242 -191 -305 -214 -315 -22 -10
-21 -8 7 27 16 21 49 70 72 108 135 220 331 544 385 635 34 58 86 143 114 190
29 47 97 159 150 250 142 240 537 904 585 982 l41 68 1016 0 c639 0 1036 4
1069 10 224 42 380 248 384 505 1 64 -4 93 -24 143 -48 123 -163 232 -290 277
-53 18 -97 19 -1240 21 -652 2 -1235 3 -1296 3 l-111 1 -72 110 c-104 158
-185 256 -345 416 -110 110 -151 145 -186 157 -41 14 97 15 1665 14 l1710 -2
95 -26z m-9930 -205 c0 -2 -7 -4 -15 -4 -8 0 -15 4 -15 10 0 5 7 7 15 4 8 -4
15 -8 15 -10z m190 -14 c0 -4 15 -11 33 -15 28 -7 29 -9 9 -12 -13 -3 -29 1
-37 7 -8 6 -20 8 -26 4 -8 -4 -9 -3 -5 4 4 7 2 12 -3 12 -6 0 -11 4 -11 9 0 5
9 7 20 4 11 -3 20 -9 20 -13z m-400 0 c8 -5 11 -10 5 -10 -5 0 -17 5 -25 10
-8 5 -10 10 -5 10 6 0 17 -5 25 -10z m240 6 c0 -3 -4 -8 -10 -11 -5 -3 -10 -1
-10 4 0 6 5 11 10 11 6 0 10 -2 10 -4z m103 -7 c-8 -8 -16 -8 -30 0 -16 9 -14
10 12 11 21 0 26 -3 18 -11z m-148 -9 c3 -5 1 -10 -4 -10 -6 0 -11 5 -11 10 0
6 2 10 4 10 3 0 8 -4 11 -10z m-196 -16 c10 -9 -35 -3 -49 6 -11 8 -7 9 15 4
17 -4 32 -8 34 -10z m301 12 c0 -3 -4 -8 -10 -11 -5 -3 -10 -1 -10 4 0 6 5 11
10 11 6 0 10 -2 10 -4z m64 -22 c3 -8 2 -12 -4 -9 -6 3 -10 10 -10 16 0 14 7
11 14 -7z m196 -4 c0 -5 -12 -10 -27 -9 l-28 1 25 8 c14 4 26 8 28 9 1 1 2 -3
2 -9z m-280 -4 c0 -9 -30 -14 -35 -6 -4 6 3 10 14 10 12 0 21 -2 21 -4z m125
-16 c3 -5 1 -10 -4 -10 -6 0 -11 5 -11 10 0 6 2 10 4 10 3 0 8 -4 11 -10z
m115 -24 c0 -3 -4 -8 -10 -11 -5 -3 -10 -1 -10 4 0 6 5 11 10 11 6 0 10 -2 10
-4z m-535 -26 c3 -6 -1 -7 -9 -4 -18 7 -21 14 -7 14 6 0 13 -4 16 -10z m182
-16 c-3 -3 -12 -4 -19 -1 -8 3 -5 6 6 6 11 1 17 -2 13 -5z m63 -8 c0 -2 -7 -7
-16 -10 -8 -3 -12 -2 -9 4 6 10 25 14 25 6z m105 -6 c3 -5 1 -10 -4 -10 -6 0
-11 5 -11 10 0 6 2 10 4 10 3 0 8 -4 11 -10z m-542 -7 c-7 -2 -19 -2 -25 0 -7
3 -2 5 12 5 14 0 19 -2 13 -5z m521 -22 c-2 -3 -12 3 -22 13 -16 17 -16 18 5
5 12 -7 20 -15 17 -18z m111 19 c-3 -5 -14 -10 -23 -10 -15 0 -15 2 -2 10 20
13 33 13 25 0z m52 -6 c-3 -3 -12 -4 -19 -1 -8 3 -5 6 6 6 11 1 17 -2 13 -5z
m80 -10 c-3 -3 -12 -4 -19 -1 -8 3 -5 6 6 6 11 1 17 -2 13 -5z m53 -14 c-8 -5
-24 -9 -35 -9 l-20 0 20 9 c11 5 27 9 35 9 13 1 13 0 0 -9z m161 -19 c-7 -5
-10 -14 -7 -20 4 -6 3 -11 -3 -11 -5 0 -13 5 -16 10 -4 6 -16 8 -28 4 -20 -6
-20 -6 -4 10 9 10 20 15 25 12 4 -2 14 -1 22 4 8 5 17 7 19 4 3 -3 -1 -9 -8
-13z m-94 -7 c-3 -3 -12 -4 -19 -1 -8 3 -5 6 6 6 11 1 17 -2 13 -5z m37 -39
c-10 -8 -23 -14 -29 -14 -5 0 -1 6 9 14 11 8 24 15 30 15 5 0 1 -7 -10 -15z
m-337 -21 c-3 -3 -12 -4 -19 -1 -8 3 -5 6 6 6 11 1 17 -2 13 -5z m283 -66 c0
-11 -42 -10 -60 2 -11 8 -5 10 23 8 20 -1 37 -6 37 -10z m50 8 c0 -11 -19 -15
-25 -6 -3 5 1 10 9 10 9 0 16 -2 16 -4z m110 -5 c0 -8 -81 -23 -88 -16 -4 4
54 23 76 24 6 1 12 -3 12 -8z m-270 -11 c0 -5 -2 -10 -4 -10 -3 0 -8 5 -11 10
-3 6 -1 10 4 10 6 0 11 -4 11 -10z m4599 -522 c1 -239 -2 -368 -9 -368 -7 0
-9 156 -8 453 1 279 4 419 9 367 4 -47 7 -250 8 -452z m5471 522 c0 -5 -10
-10 -22 -10 -19 0 -20 2 -8 10 19 13 30 13 30 0z m-10023 -26 c-3 -3 -12 -4
-19 -1 -8 3 -5 6 6 6 11 1 17 -2 13 -5z m10213 -26 c0 -5 -7 -3 -15 6 -8 8
-15 18 -15 22 0 3 7 1 15 -6 8 -7 15 -17 15 -22z m-10104 4 c-10 -2 -22 0 -28
6 -6 6 0 7 19 4 21 -5 23 -7 9 -10z m273 -9 c3 -2 -6 -2 -19 0 -13 2 -26 9
-28 16 -3 10 0 10 19 1 13 -7 26 -14 28 -17z m9751 23 c0 -3 -4 -8 -10 -11 -5
-3 -10 -1 -10 4 0 6 5 11 10 11 6 0 10 -2 10 -4z m-9810 -16 c0 -5 -8 -10 -17
-10 -15 0 -16 2 -3 10 19 12 20 12 20 0z m-90 -10 c0 -5 -4 -10 -9 -10 -5 0
-18 -3 -28 -6 -16 -6 -16 -5 2 9 23 19 35 21 35 7z m-60 -14 c0 -3 -4 -8 -10
-11 -5 -3 -10 -1 -10 4 0 6 5 11 10 11 6 0 10 -2 10 -4z m95 -6 c3 -6 -4 -10
-17 -10 -18 0 -20 2 -8 10 19 12 18 12 25 0z m46 -8 c-7 -2 -18 1 -23 6 -8 8
-4 9 13 5 13 -4 18 -8 10 -11z m126 4 c3 -3 -13 -5 -36 -4 -23 1 -44 4 -46 8
-5 8 74 5 82 -4z m9468 -6 c-3 -5 -14 -10 -23 -10 -15 0 -15 2 -2 10 20 13 33
13 25 0z m78 3 c-7 -2 -19 -2 -25 0 -7 3 -2 5 12 5 14 0 19 -2 13 -5z m97 3
c0 -3 -4 -8 -10 -11 -5 -3 -10 -1 -10 4 0 6 5 11 10 11 6 0 10 -2 10 -4z m155
-6 c4 -6 -20 -9 -67 -8 -71 1 -72 1 -23 8 78 11 83 11 90 0z m-145 -30 c0 -5
-2 -10 -4 -10 -3 0 -8 5 -11 10 -3 6 -1 10 4 10 6 0 11 -4 11 -10z m-142 -7
c-41 -3 -58 -8 -58 -18 0 -14 -37 -31 -47 -21 -4 3 1 6 10 6 9 0 21 9 27 20 9
17 20 20 68 18 l57 -2 -57 -3z m302 -2 c0 -4 -11 -6 -25 -3 -14 2 -25 6 -25 8
0 2 11 4 25 4 14 0 25 -4 25 -9z m-540 -12 c0 -5 -7 -5 -17 -2 -11 4 -14 3 -9
-5 4 -7 19 -12 34 -13 24 0 25 -1 7 -8 -11 -5 -24 -6 -28 -4 -4 3 -16 -1 -25
-8 -14 -11 -15 -11 -5 0 15 17 -3 37 -38 43 -13 3 0 5 29 5 28 0 52 -4 52 -8z
m515 -39 c-3 -5 -12 -10 -18 -10 -7 0 -6 4 3 10 19 12 23 12 15 0z m-208 -6
c-3 -3 -12 -4 -19 -1 -8 3 -5 6 6 6 11 1 17 -2 13 -5z m-344 -21 c-7 -2 -19
-2 -25 0 -7 3 -2 5 12 5 14 0 19 -2 13 -5z m54 1 c-3 -3 -12 -4 -19 -1 -8 3
-5 6 6 6 11 1 17 -2 13 -5z m-104 -11 c-7 -2 -19 -2 -25 0 -7 3 -2 5 12 5 14
0 19 -2 13 -5z m667 -33 c0 -11 -4 -20 -8 -20 -4 0 -8 9 -8 20 0 11 4 20 8 20
4 0 8 -9 8 -20z m-569 -38 c-7 -2 -18 1 -23 6 -8 8 -4 9 13 5 13 -4 18 -8 10
-11z m289 -26 c0 -2 -7 -7 -16 -10 -8 -3 -12 -2 -9 4 6 10 25 14 25 6z m-313
-32 c-3 -3 -12 -4 -19 -1 -8 3 -5 6 6 6 11 1 17 -2 13 -5z m58 -14 c3 -5 1
-10 -4 -10 -6 0 -11 5 -11 10 0 6 2 10 4 10 3 0 8 -4 11 -10z m-6988 -486 c2
-5 -15 -8 -39 -5 -31 3 -38 6 -24 11 26 9 59 6 63 -6z m303 -16 c0 -5 -4 -6
-10 -3 -5 3 -10 2 -10 -4 0 -5 6 -12 13 -14 6 -3 3 -6 -8 -6 -11 -1 -26 9 -34
20 -11 19 -11 21 3 16 9 -4 16 -2 16 3 0 5 7 7 15 4 8 -4 15 -10 15 -16z m-72
0 c15 -15 16 -32 2 -23 -5 3 -10 2 -10 -4 0 -13 45 -25 59 -16 7 3 11 -2 11
-14 0 -30 -18 -71 -32 -71 -9 0 -9 3 0 12 7 7 12 15 12 19 0 7 -111 3 -152 -6
-10 -2 -18 1 -18 6 0 5 10 9 23 10 12 0 40 2 62 5 22 2 47 5 55 5 38 2 41 13
5 18 -37 6 -40 9 -42 39 -1 34 5 40 25 20z m-63 -25 c17 -22 14 -38 -9 -39
-12 -2 -13 -1 -1 3 12 3 13 9 4 25 -8 15 -17 18 -37 14 -19 -5 -23 -4 -13 3
11 7 9 10 -10 14 -13 2 -7 3 14 2 23 -2 44 -11 52 -22z m-80 -22 c3 -5 2 -12
-3 -15 -5 -3 -9 1 -9 9 0 17 3 19 12 6z m40 -11 c3 -5 -1 -10 -10 -10 -9 0
-13 5 -10 10 3 6 8 10 10 10 2 0 7 -4 10 -10z m-195 -30 c-8 -5 -22 -10 -30
-10 -13 0 -13 1 0 10 8 5 22 10 30 10 13 0 13 -1 0 -10z m60 5 c0 -2 -10 -10
-22 -16 -21 -11 -22 -11 -9 4 13 16 31 23 31 12z m90 -5 c12 -8 10 -9 -7 -7
-12 2 -26 6 -29 10 -11 11 19 8 36 -3z m40 -34 c0 -2 -7 -7 -16 -10 -8 -3 -12
-2 -9 4 6 10 25 14 25 6z m77 -2 c-3 -3 -12 -4 -19 -1 -8 3 -5 6 6 6 11 1 17
-2 13 -5z m1701 -61 c71 -33 127 -104 142 -179 7 -30 9 -58 6 -61 -3 -3 -7 0
-10 8 -24 82 -44 119 -87 161 -49 49 -119 78 -184 78 -98 0 -204 -69 -249
-163 -30 -62 -35 -42 -5 23 66 147 236 205 387 133z m-1672 18 c-6 -9 -56 -22
-56 -14 0 4 40 21 53 22 5 1 6 -3 3 -8z m44 -1 c0 -5 -5 -10 -11 -10 -5 0 -7
5 -4 10 3 6 8 10 11 10 2 0 4 -4 4 -10z m-243 -6 c-3 -3 -12 -4 -19 -1 -8 3
-5 6 6 6 11 1 17 -2 13 -5z m130 0 c-3 -3 -12 -4 -19 -1 -8 3 -5 6 6 6 11 1
17 -2 13 -5z m-72 -14 c3 -5 1 -10 -4 -10 -6 0 -11 5 -11 10 0 6 2 10 4 10 3
0 8 -4 11 -10z m-2438 -26 c-3 -3 -12 -4 -19 -1 -8 3 -5 6 6 6 11 1 17 -2 13
-5z m323 -9 c-7 -9 -15 -13 -17 -11 -7 7 7 26 19 26 6 0 6 -6 -2 -15z m70 11
c0 -3 -4 -8 -10 -11 -5 -3 -10 -1 -10 4 0 6 5 11 10 11 6 0 10 -2 10 -4z m30
-6 c0 -5 -5 -10 -11 -10 -5 0 -7 5 -4 10 3 6 8 10 11 10 2 0 4 -4 4 -10z
m8283 -47 c-13 -2 -33 -2 -45 0 -13 2 -3 4 22 4 25 0 35 -2 23 -4z m-8183 -13
c0 -5 -4 -10 -9 -10 -6 0 -13 5 -16 10 -3 6 1 10 9 10 9 0 16 -4 16 -10z
m9313 -5 c-3 -9 -8 -14 -10 -11 -3 3 -2 9 2 15 9 16 15 13 8 -4z m-9410 -6
c-8 -8 -19 -8 -40 -1 -28 10 -28 10 12 11 28 1 36 -2 28 -10z m167 1 c-20 -13
-50 -13 -50 0 0 6 15 10 33 10 24 0 28 -3 17 -10z m7672 -4 c4 3 15 -2 24 -10
14 -14 12 -15 -13 -10 -38 7 -67 12 -75 13 -5 1 -8 5 -8 10 0 6 12 6 31 1 18
-5 36 -7 41 -4z m-342 -26 c0 -5 -8 -10 -17 -10 -15 0 -16 2 -3 10 19 12 20
12 20 0z m255 -18 c-3 -3 -11 0 -18 7 -9 10 -8 11 6 5 10 -3 15 -9 12 -12z
m-71 -12 c-10 -4 -23 -5 -28 -2 -13 7 16 21 32 14 13 -4 12 -7 -4 -12z m180
11 c5 -8 -84 -3 -93 5 -2 2 16 4 42 4 25 0 48 -4 51 -9z m103 3 c-3 -3 -12 -4
-19 -1 -8 3 -5 6 6 6 11 1 17 -2 13 -5z m1404 -31 c-11 -21 -27 -47 -36 -58
-14 -16 -2 9 42 88 2 4 6 7 9 7 2 0 -4 -17 -15 -37z m-9374 11 c-3 -3 -12 -4
-19 -1 -8 3 -5 6 6 6 11 1 17 -2 13 -5z m-67 -13 c0 -6 -4 -12 -8 -15 -5 -3
-9 1 -9 9 0 8 4 15 9 15 4 0 8 -4 8 -9z m200 -1 c-9 -4 -31 -5 -50 0 -34 8
-33 8 15 9 34 0 45 -3 35 -9z m45 0 c3 -5 2 -10 -4 -10 -5 0 -13 5 -16 10 -3
6 -2 10 4 10 5 0 13 -4 16 -10z m27 -42 c-11 -11 -32 -3 -32 12 0 4 9 6 21 3
13 -4 17 -9 11 -15z m131 11 c-13 -13 -65 -20 -57 -7 3 5 12 7 18 5 7 -3 19
-1 27 4 19 12 25 11 12 -2z m7149 -11 c-9 -9 -15 -9 -24 0 -9 9 -7 12 12 12
19 0 21 -3 12 -12z m-7082 -20 c0 -6 -7 -7 -16 -4 -9 3 -18 6 -20 6 -3 0 -3 4
1 10 7 11 35 2 35 -12z m-65 2 c-11 -5 -38 -8 -60 -8 l-40 1 40 7 c22 4 49 7
60 8 l20 1 -20 -9z m-217 -7 c-10 -2 -28 -2 -40 0 -13 2 -5 4 17 4 22 1 32 -1
23 -4z m3170 -14 c-4 -12 -43 -12 -558 -8 -238 2 -325 5 -250 9 215 11 812 11
808 -1z m1582 2 c95 -5 3 -8 -312 -9 -293 -1 -448 1 -448 8 0 12 544 12 760 1z
m2591 2 c-10 -4 -5 -10 15 -19 16 -7 23 -13 16 -13 -21 -1 -53 19 -47 30 4 5
12 9 18 8 7 0 6 -3 -2 -6z m65 -11 c-10 -2 -22 0 -28 6 -6 6 0 7 19 4 21 -5
23 -7 9 -10z m-7122 -1 c3 -4 -20 -8 -52 -8 -38 0 -50 3 -37 8 27 10 83 11 89
0z m46 -1 c0 -5 -4 -10 -9 -10 -6 0 -13 5 -16 10 -3 6 1 10 9 10 9 0 16 -4 16
-10z m7137 -1 c-14 -8 -22 -8 -30 0 -8 8 -3 11 19 11 25 -1 27 -2 11 -11z m81
4 c-10 -2 -28 -2 -40 0 -13 2 -5 4 17 4 22 1 32 -1 23 -4z m69 1 c-3 -3 -12
-4 -19 -1 -8 3 -5 6 6 6 11 1 17 -2 13 -5z m1563 -24 c-12 -16 -24 -30 -26
-30 -3 0 4 14 16 30 12 17 24 30 26 30 3 0 -4 -13 -16 -30z m-9163 14 c-3 -3
-12 -4 -19 -1 -8 3 -5 6 6 6 11 1 17 -2 13 -5z m7229 -9 c12 -12 12 -15 2 -15
-10 0 -9 -3 2 -11 13 -9 13 -10 0 -6 -8 2 -14 10 -12 16 1 6 -5 11 -13 11 -8
0 -15 5 -15 10 0 15 19 12 36 -5z m-6838 -12 c27 -7 29 -23 2 -23 -11 0 -20
-4 -20 -10 0 -5 -6 -10 -12 -10 -7 0 -20 -5 -28 -10 -13 -9 -13 -11 -1 -19 10
-7 7 -9 -12 -8 -20 2 -23 5 -14 16 10 12 6 13 -21 9 -21 -3 -29 -1 -23 5 6 6
25 11 43 11 53 3 65 15 37 38 l-24 20 25 -7 c14 -4 35 -9 48 -12z m7319 11
c-3 -3 -12 -4 -19 -1 -8 3 -5 6 6 6 11 1 17 -2 13 -5z m-7492 -14 c-3 -5 -11
-10 -16 -10 -6 0 -7 5 -4 10 3 6 11 10 16 10 6 0 7 -4 4 -10z m125 -10 c13 -8
13 -10 -2 -10 -9 0 -24 -3 -34 -7 -12 -4 -15 -3 -10 5 4 8 2 10 -7 6 -8 -3
-18 -1 -22 5 -8 14 54 14 75 1z m6854 -3 c3 4 6 1 6 -5 0 -13 -5 -14 -37 -6
-13 4 -23 10 -23 15 0 5 11 4 24 -1 13 -5 27 -6 30 -3z m-7040 -21 c-3 -9 -10
-16 -15 -16 -6 0 -5 9 1 21 13 24 24 20 14 -5z m6966 -6 c0 -5 -10 -6 -22 -4
l-23 5 23 -12 c32 -17 27 -30 -8 -18 -32 12 -36 19 -19 36 11 11 49 6 49 -7z
m46 -1 c7 -11 -13 -29 -31 -28 -5 0 -4 3 3 6 10 4 10 8 1 19 -9 11 -8 14 4 14
9 0 19 -5 23 -11z m121 3 c6 -4 -9 -7 -33 -7 -24 0 -44 3 -44 8 0 9 61 9 77
-1z m-7097 -32 c-8 -5 -19 -10 -25 -10 -5 0 -3 5 5 10 8 5 20 10 25 10 6 0 3
-5 -5 -10z m88 3 c-1 -5 4 -19 11 -33 14 -24 13 -25 -6 -7 -11 9 -25 17 -31
17 -19 0 -14 18 6 23 9 3 18 5 20 6 1 0 1 -2 0 -6z m6942 -2 c0 -6 -4 -12 -8
-15 -5 -3 -9 1 -9 9 0 8 4 15 9 15 4 0 8 -4 8 -9z m205 -2 c-6 -9 -79 -9 -94
0 -9 6 5 8 42 8 30 -1 54 -4 52 -8z m-7195 -3 c0 -2 -7 -7 -16 -10 -8 -3 -12
-2 -9 4 6 10 25 14 25 6z m6820 -4 c-9 -3 -8 -7 1 -13 9 -5 -24 -9 -81 -9 -82
0 -98 -3 -112 -19 -9 -11 -13 -22 -10 -26 4 -4 -10 1 -30 11 -21 10 -38 21
-38 24 0 12 125 30 175 25 28 -3 45 -2 38 3 -7 4 6 7 28 7 22 0 35 -1 29 -3z
m-8919 -19 c13 -16 12 -17 -3 -4 -17 13 -22 21 -14 21 2 0 10 -8 17 -17z
m1946 11 c-3 -3 -12 -4 -19 -1 -8 3 -5 6 6 6 11 1 17 -2 13 -5z m40 0 c-3 -3
-12 -4 -19 -1 -8 3 -5 6 6 6 11 1 17 -2 13 -5z m-117 -8 c0 -2 -7 -7 -16 -10
-8 -3 -12 -2 -9 4 6 10 25 14 25 6z m7100 -6 c0 -5 -4 -10 -9 -10 -6 0 -13 5
-16 10 -3 6 1 10 9 10 9 0 16 -4 16 -10z m263 3 c-13 -2 -33 -2 -45 0 -13 2
-3 4 22 4 25 0 35 -2 23 -4z m-7145 -13 c-14 -4 -32 -11 -40 -15 -7 -3 -4 1 6
9 11 9 29 16 40 15 17 -1 16 -2 -6 -9z m6722 -14 c-14 -6 -31 -17 -38 -26 -8
-8 -11 -9 -7 -2 4 7 -1 12 -12 13 -16 1 -16 2 1 6 11 3 15 8 8 12 -6 3 8 7 31
7 39 1 40 0 17 -10z m-6587 -10 c4 -10 1 -13 -9 -9 -15 6 -19 23 -5 23 5 0 11
-7 14 -14z m34 8 c-3 -3 -12 -4 -19 -1 -8 3 -5 6 6 6 11 1 17 -2 13 -5z m6661
-1 c-10 -2 -28 -2 -40 0 -13 2 -5 4 17 4 22 1 32 -1 23 -4z m-6806 -15 c-9 -9
-15 -9 -24 0 -9 9 -7 12 12 12 19 0 21 -3 12 -12z m6551 -8 c-3 -12 0 -20 6
-20 7 0 9 5 6 10 -8 12 5 13 23 1 11 -6 10 -10 -3 -15 -10 -3 -15 -12 -11 -21
3 -10 -1 -15 -11 -15 -9 0 -13 3 -10 7 4 3 2 12 -3 19 -17 20 -20 54 -5 54 8
0 11 -7 8 -20z m447 16 c0 -2 -7 -7 -16 -10 -8 -3 -12 -2 -9 4 6 10 25 14 25
6z m-5141 -86 c16 -109 83 -303 144 -422 114 -220 324 -450 529 -581 140 -89
320 -160 485 -192 l93 -17 -3 -243 c-1 -193 -5 -241 -14 -233 -10 8 -13 66
-13 229 l0 219 -22 4 c-13 3 -50 10 -83 17 -84 16 -244 73 -339 121 -312 157
-595 464 -722 783 -32 83 -74 229 -90 318 l-6 37 -210 0 -209 0 5 -62 c6 -69
-8 -42 -17 30 -2 22 -7 44 -11 50 -5 9 58 12 231 15 131 1 239 3 239 5 1 1 7
-34 13 -78z m5034 73 c-7 -2 -21 -2 -30 0 -10 3 -4 5 12 5 17 0 24 -2 18 -5z
m-6847 -15 c-10 -6 -22 -6 -26 -2 -5 5 3 10 18 11 22 1 24 0 8 -9z m54 2 c0
-5 -7 -7 -15 -4 -8 4 -15 8 -15 10 0 2 7 4 15 4 8 0 15 -4 15 -10z m5161 -7
c-6 -10 -17 -55 -26 -100 -16 -85 -93 -338 -101 -331 -2 3 7 38 21 79 29 82
75 279 75 315 l0 24 -210 0 -210 0 0 -24 c0 -51 -61 -257 -106 -360 -201 -460
-609 -789 -1096 -886 l-58 -11 -3 -222 -2 -222 -3 226 c-1 132 -6 229 -12 235
-6 6 20 15 78 26 515 98 956 492 1117 998 15 47 30 90 34 95 17 27 39 151 29
163 -8 9 40 12 236 12 231 0 246 -1 237 -17z m1219 13 c0 -3 -4 -8 -10 -11 -5
-3 -10 -1 -10 4 0 6 5 11 10 11 6 0 10 -2 10 -4z m160 -16 c8 -5 11 -10 5 -10
-5 0 -17 5 -25 10 -8 5 -10 10 -5 10 6 0 17 -5 25 -10z m-112 -21 c3 -12 2
-12 -6 0 -9 13 -13 13 -27 1 -20 -17 -45 -22 -45 -9 0 4 -8 6 -17 3 -15 -5
-16 -4 -3 5 8 6 22 8 30 6 8 -2 22 0 30 5 19 12 33 8 38 -11z m162 1 c-20 -13
-33 -13 -25 0 3 6 14 10 23 10 15 0 15 -2 2 -10z m-6400 -22 c0 -6 -7 -7 -16
-4 -9 3 -34 7 -57 7 l-42 2 35 6 c42 8 80 2 80 -11z m-167 5 c-7 -2 -21 -2
-30 0 -10 3 -4 5 12 5 17 0 24 -2 18 -5z m44 1 c-3 -3 -12 -4 -19 -1 -8 3 -5
6 6 6 11 1 17 -2 13 -5z m1518 -22 c-3 -3 -11 0 -18 7 -9 10 -8 11 6 5 10 -3
15 -9 12 -12z m4645 3 c-7 -8 -17 -15 -22 -15 -11 0 14 29 26 30 5 0 3 -7 -4
-15z m-6094 -6 c3 -6 17 -8 29 -5 13 3 26 2 29 -3 8 -12 -65 -22 -100 -13 -16
5 -54 8 -86 8 -31 -1 -54 2 -52 5 2 4 36 7 76 8 39 1 74 4 77 6 8 8 19 6 27
-6z m-287 -3 c-2 -2 -15 -9 -29 -15 -24 -11 -24 -11 -6 3 16 13 49 24 35 12z
m6301 -5 c0 -6 -9 -9 -19 -8 -11 0 -17 5 -15 9 7 11 34 10 34 -1z m125 -21
c-3 -5 -16 -10 -28 -9 -21 0 -21 1 -2 9 28 12 37 12 30 0z m124 -6 c10 -9 -45
-3 -59 6 -11 7 -5 8 20 4 19 -4 37 -8 39 -10z m-6284 -3 c26 -6 31 -9 15 -9
-14 -1 -43 3 -65 7 -26 6 -31 9 -15 9 14 1 43 -3 65 -7z m6353 2 c-10 -2 -26
-2 -35 0 -10 3 -2 5 17 5 19 0 27 -2 18 -5z m-6455 -10 c-7 -2 -21 -2 -30 0
-10 3 -4 5 12 5 17 0 24 -2 18 -5z m6177 -13 c11 -8 7 -9 -15 -4 -37 8 -45 14
-19 14 10 0 26 -5 34 -10z m-4873 -52 c-3 -7 -5 -2 -5 12 0 14 2 19 5 13 2 -7
2 -19 0 -25z m4709 7 c-26 -19 -42 -19 -26 0 7 8 20 15 29 15 13 -1 13 -3 -3
-15z m-5951 -5 c-3 -5 -16 -10 -28 -9 -20 1 -20 2 3 9 14 4 26 8 28 9 2 1 0
-3 -3 -9z m6057 3 c-6 -3 -10 -8 -8 -11 2 -4 -17 -5 -42 -3 -35 3 -41 6 -24
10 28 7 93 10 74 4z m115 1 c-3 -3 -12 -4 -19 -1 -8 3 -5 6 6 6 11 1 17 -2 13
-5z m-267 -14 c0 -5 -4 -10 -10 -10 -5 0 -10 5 -10 10 0 6 5 10 10 10 6 0 10
-4 10 -10z m-5730 -13 c0 -7 -5 -18 -12 -25 -9 -9 -7 -12 12 -12 13 0 21 -3
17 -6 -9 -9 -57 5 -57 16 0 6 7 10 16 10 10 0 14 6 10 15 -3 8 -1 15 4 15 6 0
10 -6 10 -13z m5915 3 c3 -5 2 -10 -4 -10 -5 0 -13 5 -16 10 -3 6 -2 10 4 10
5 0 13 -4 16 -10z m380 0 c-3 -5 -16 -10 -28 -9 -20 1 -20 2 3 9 14 4 26 8 28
9 2 1 0 -3 -3 -9z m-6460 -10 c3 -5 1 -10 -4 -10 -6 0 -11 5 -11 10 0 6 2 10
4 10 3 0 8 -4 11 -10z m6158 3 c-7 -2 -19 -2 -25 0 -7 3 -2 5 12 5 14 0 19 -2
13 -5z m154 1 c-3 -3 -12 -4 -19 -1 -8 3 -5 6 6 6 11 1 17 -2 13 -5z m-6270
-10 c-3 -3 -12 -4 -19 -1 -8 3 -5 6 6 6 11 1 17 -2 13 -5z m1212 -39 c0 -5 -4
-3 -9 5 -5 8 -9 22 -9 30 0 16 17 -16 18 -35z m-1352 29 c-3 -3 -12 -4 -19 -1
-8 3 -5 6 6 6 11 1 17 -2 13 -5z m6223 -7 c23 2 23 2 -3 -7 -31 -10 -60 -3
-51 11 3 5 11 6 17 2 7 -4 23 -7 37 -6z m-87 -4 c3 -5 -18 -8 -46 -9 -29 -1
-94 -3 -144 -5 -51 -3 -93 -1 -93 3 0 4 42 9 93 11 50 1 113 4 139 5 26 1 49
-1 51 -5z m-6008 -53 c39 -19 74 -36 79 -38 5 -3 6 0 3 5 -4 6 5 11 20 11 26
0 26 -1 4 -12 -22 -12 -22 -12 -2 -30 17 -16 35 -23 66 -25 6 -1 4 -5 -3 -10
-11 -6 -6 -18 19 -55 31 -44 35 -46 83 -48 l51 -2 -48 -3 c-41 -4 -48 -7 -42
-21 15 -40 35 -129 35 -158 0 -61 -30 -177 -61 -234 -37 -69 -123 -158 -188
-194 -105 -57 -88 -56 -1178 -56 l-1002 0 -203 -227 c-112 -125 -241 -270
-288 -323 -47 -53 -98 -104 -113 -113 -21 -12 -13 0 28 45 72 79 383 431 490
554 l80 92 1040 4 1040 3 58 23 c67 27 165 113 203 177 33 57 69 151 77 201
31 190 -142 415 -347 453 -36 7 -241 12 -515 13 -377 2 -414 3 -216 8 132 3
357 3 500 0 l260 -5 70 -35z m6170 40 c-3 -5 -11 -10 -16 -10 -6 0 -7 5 -4 10
3 6 11 10 16 10 6 0 7 -4 4 -10z m-7508 -6 c-3 -3 -12 -4 -19 -1 -8 3 -5 6 6
6 11 1 17 -2 13 -5z m186 -1 c-13 -2 -35 -2 -50 0 -16 2 -5 4 22 4 28 0 40 -2
28 -4z m1397 -3 c-8 -5 -26 -9 -40 -9 l-25 1 25 8 c14 4 32 8 40 9 13 1 13 0
0 -9z m50 0 c0 -5 -4 -10 -9 -10 -6 0 -13 5 -16 10 -3 6 1 10 9 10 9 0 16 -4
16 -10z m-158 -7 c-23 -2 -40 -8 -37 -13 3 -4 -4 -6 -16 -3 -34 9 -1 23 51 21
l45 -1 -43 -4z m5782 -3 c6 6 26 9 46 9 l35 -1 -40 -10 c-49 -12 -106 -11
-118 1 -6 6 6 6 29 1 24 -6 43 -5 48 0z m-5519 -19 c-2 -4 11 -15 30 -25 19
-10 36 -25 39 -33 3 -8 10 -11 16 -8 17 11 11 -7 -7 -21 -20 -15 -69 -18 -77
-5 -3 5 0 9 7 8 48 -1 58 3 48 22 -6 10 -18 22 -28 26 -20 9 -197 14 -184 5 5
-3 -17 -5 -49 -5 -75 0 -68 11 11 18 34 3 66 10 72 16 6 6 27 10 47 9 l35 -1
-33 -4 c-18 -2 -30 -8 -28 -12 8 -13 78 0 72 14 -3 8 2 11 15 8 10 -3 17 -8
14 -12z m5429 3 c26 -9 45 -19 42 -22 -3 -2 -26 3 -51 13 -26 9 -57 15 -70 12
-14 -2 -22 0 -19 4 8 14 46 11 98 -7z m-5666 -1 c-10 -2 -26 -2 -35 0 -10 3
-2 5 17 5 19 0 27 -2 18 -5z m105 0 c-7 -2 -21 -2 -30 0 -10 3 -4 5 12 5 17 0
24 -2 18 -5z m6641 0 c-767 -3 -822 -4 -836 -21 -8 -9 -120 -186 -248 -392
-128 -206 -237 -379 -243 -385 -15 -14 13 33 163 275 73 118 141 229 150 245
44 76 84 142 103 169 16 23 18 30 6 38 -11 8 -10 9 3 4 12 -3 22 2 29 17 6 12
18 30 27 40 14 16 65 17 841 15 l826 -3 -821 -2z m944 0 c-10 -2 -28 -2 -40 0
-13 2 -5 4 17 4 22 1 32 -1 23 -4z m-2083 -13 c-3 -5 -10 -10 -16 -10 -5 0 -9
5 -9 10 0 6 7 10 16 10 8 0 12 -4 9 -10z m219 -1 c-2 -4 -23 -7 -46 -7 -30 1
-36 3 -20 7 30 8 71 8 66 0z m-2876 -309 c0 -146 -4 -308 -8 -360 -4 -61 -7
44 -7 290 -1 212 3 374 7 360 4 -14 8 -144 8 -290z m2315 303 c-7 -2 -21 -2
-30 0 -10 3 -4 5 12 5 17 0 24 -2 18 -5z m64 1 c-3 -3 -12 -4 -19 -1 -8 3 -5
6 6 6 11 1 17 -2 13 -5z m41 -27 c-2 -18 -8 -22 -39 -22 -20 0 -35 3 -32 8 2
4 0 7 -6 7 -5 0 -11 -5 -13 -12 -3 -7 -7 -4 -12 7 -4 11 -4 17 -1 13 4 -3 19
-3 35 2 16 5 32 4 38 -2 6 -6 12 -6 16 1 4 6 2 11 -3 11 -6 0 -11 4 -11 10 0
5 7 7 15 4 8 -3 14 -16 13 -27z m245 2 c-10 -10 -85 0 -79 10 3 4 23 5 46 3
23 -3 38 -8 33 -13z m-5383 1 c0 -5 9 -10 19 -10 11 0 22 -4 26 -10 3 -5 -7
-8 -24 -7 -16 1 -27 5 -24 10 2 4 -3 7 -12 7 -9 0 -13 5 -10 10 3 6 10 10 16
10 5 0 9 -4 9 -10z m5470 -1 c0 -11 -27 -12 -34 -1 -2 4 4 9 15 9 10 1 19 -2
19 -8z m50 -10 c0 -4 -7 -6 -15 -3 -8 4 -15 10 -15 15 0 4 7 6 15 3 8 -4 15
-10 15 -15z m55 11 c-3 -5 -12 -10 -18 -10 -7 0 -6 4 3 10 19 12 23 12 15 0z
m-5335 -12 c0 -5 -27 -8 -60 -6 -78 4 -78 17 0 16 33 -1 60 -5 60 -10z m127 3
c7 -4 -16 -8 -52 -9 -36 -1 -65 2 -65 7 0 10 100 12 117 2z m-387 -17 c0 -2
-9 -4 -21 -4 -11 0 -18 4 -14 10 5 8 35 3 35 -6z m5345 6 c3 -5 1 -10 -4 -10
-6 0 -11 5 -11 10 0 6 2 10 4 10 3 0 8 -4 11 -10z m-4975 -10 c12 -8 9 -10
-13 -10 -16 0 -26 4 -22 10 8 12 16 12 35 0z m4885 -8 c-3 -3 -11 0 -18 7 -9
10 -8 11 6 5 10 -3 15 -9 12 -12z m158 11 c-7 -2 -21 -2 -30 0 -10 3 -4 5 12
5 17 0 24 -2 18 -5z m197 -4 c0 -11 -47 -12 -53 -1 -3 4 8 7 24 8 16 1 29 -3
29 -7z m-5645 -13 c17 0 36 -6 44 -14 11 -11 9 -12 -11 -7 -35 9 -119 9 -150
0 -19 -5 -28 -4 -28 4 0 7 4 10 9 7 5 -3 22 1 37 9 16 8 38 12 49 8 11 -4 34
-7 50 -7z m341 -1 c-15 -15 -71 -22 -62 -7 2 4 -6 8 -20 7 -14 0 -29 -6 -33
-14 -6 -9 -11 -10 -15 -2 -4 6 -15 11 -24 10 -14 0 -13 -2 3 -9 11 -5 16 -9
10 -10 -5 -1 1 -5 15 -9 14 -4 20 -10 14 -13 -5 -4 -24 3 -42 14 -53 33 -28
48 80 48 79 0 88 -2 74 -15z m199 5 c3 -5 -1 -10 -9 -10 -9 0 -16 5 -16 10 0
6 4 10 9 10 6 0 13 -4 16 -10z m4809 -19 c-7 -8 -35 9 -29 19 4 6 11 5 20 -3
7 -6 11 -14 9 -16z m-321 7 c-2 -5 -20 -8 -39 -8 -19 0 -33 3 -31 8 3 4 21 7
40 7 19 0 33 -3 30 -7z m98 -5 c13 -16 12 -17 -3 -4 -10 7 -18 15 -18 17 0 8
8 3 21 -13z m264 7 c-3 -5 -11 -10 -16 -10 -6 0 -7 5 -4 10 3 6 11 10 16 10 6
0 7 -4 4 -10z m98 3 c-7 -2 -19 -2 -25 0 -7 3 -2 5 12 5 14 0 19 -2 13 -5z
m-5229 -19 c16 -6 12 -24 -5 -24 -6 0 -8 4 -5 9 4 5 0 12 -6 14 -7 3 -10 6 -6
6 3 1 13 -2 22 -5z m156 -3 c-23 -6 -23 -8 -6 -14 11 -4 24 -3 30 3 5 5 35 9
66 9 l55 -2 -57 -6 c-31 -3 -60 -9 -64 -14 -8 -8 17 -10 86 -7 25 1 43 -1 40
-4 -8 -7 -139 -13 -135 -6 3 4 -7 12 -20 18 -33 15 -32 32 3 31 l27 -1 -25 -7z
m4629 -6 c-17 -17 -96 -27 -105 -14 -5 8 30 13 68 10 9 -1 19 3 23 9 3 5 11
10 18 10 7 0 6 -6 -4 -15z m446 6 c-14 -12 -84 -21 -90 -11 -3 5 16 11 42 13
27 2 50 4 53 5 2 1 0 -2 -5 -7z m105 -7 c0 -2 -16 -3 -35 -2 -20 1 -31 4 -25
8 11 7 60 2 60 -6z m-5585 -4 c3 -5 1 -10 -4 -10 -6 0 -11 5 -11 10 0 6 2 10
4 10 3 0 8 -4 11 -10z m365 6 c0 -2 -11 -6 -25 -8 -14 -3 -25 -1 -25 3 0 5 11
9 25 9 14 0 25 -2 25 -4z m4923 -3 c-13 -2 -23 -8 -23 -13 0 -5 10 -11 23 -13
17 -3 15 -5 -9 -6 -17 0 -34 2 -37 6 -10 9 25 33 48 31 17 -1 17 -1 -2 -5z
m-5338 -13 c-3 -5 -12 -10 -18 -10 -7 0 -6 4 3 10 19 12 23 12 15 0z m158 -5
c4 -6 10 -5 16 3 4 8 17 12 27 9 17 -4 16 -6 -4 -12 -16 -5 -20 -10 -12 -15 7
-4 -3 -7 -21 -6 -19 1 -32 5 -31 10 2 5 -2 13 -10 18 -9 6 -8 8 7 6 11 -2 23
-7 28 -13z m194 9 c-3 -3 -12 -4 -19 -1 -8 3 -5 6 6 6 11 1 17 -2 13 -5z
m4868 -4 c-3 -5 -23 -9 -43 -9 l-37 1 30 8 c44 11 57 11 50 0z m330 -9 c-11
-9 -142 -25 -133 -16 6 7 84 22 118 24 14 1 20 -3 15 -8z m-5624 -19 c-7 -2
-18 1 -23 6 -8 8 -4 9 13 5 13 -4 18 -8 10 -11z m139 8 c-8 -5 -28 -9 -45 -9
-30 2 -30 2 5 9 51 11 57 11 40 0z m190 -3 c0 -5 -9 -5 -20 -2 -11 3 -20 2
-20 -4 0 -5 8 -12 18 -14 13 -4 11 -5 -5 -6 -21 -1 -31 18 -17 32 9 8 44 4 44
-6z m106 6 c-10 -11 -85 -12 -92 -2 -3 5 18 9 47 9 29 0 49 -3 45 -7z m5231 1
c-3 -3 -12 -4 -19 -1 -8 3 -5 6 6 6 11 1 17 -2 13 -5z m-5620 -10 c-3 -3 -12
-4 -19 -1 -8 3 -5 6 6 6 11 1 17 -2 13 -5z m433 -4 c8 -5 11 -10 5 -10 -5 0
-17 5 -25 10 -8 5 -10 10 -5 10 6 0 17 -5 25 -10z m4765 0 c-3 -5 -12 -10 -18
-10 -7 0 -6 4 3 10 19 12 23 12 15 0z m-4670 -10 c3 -5 -1 -10 -10 -10 -9 0
-13 5 -10 10 3 6 8 10 10 10 2 0 7 -4 10 -10z m-565 -10 c0 -5 -4 -10 -10 -10
-5 0 -10 5 -10 10 0 6 5 10 10 10 6 0 10 -4 10 -10z m113 3 c-7 -2 -21 -2 -30
0 -10 3 -4 5 12 5 17 0 24 -2 18 -5z m50 0 c-7 -2 -19 -2 -25 0 -7 3 -2 5 12
5 14 0 19 -2 13 -5z m437 -3 c0 -5 -5 -10 -11 -10 -5 0 -7 5 -4 10 3 6 8 10
11 10 2 0 4 -4 4 -10z m63 3 c-7 -2 -21 -2 -30 0 -10 3 -4 5 12 5 17 0 24 -2
18 -5z m4534 1 c-3 -3 -12 -4 -19 -1 -8 3 -5 6 6 6 11 1 17 -2 13 -5z m496 -1
c-7 -2 -19 -2 -25 0 -7 3 -2 5 12 5 14 0 19 -2 13 -5z m-5640 -10 c-7 -2 -21
-2 -30 0 -10 3 -4 5 12 5 17 0 24 -2 18 -5z m210 -24 c-9 -9 -12 -7 -10 9 1
14 5 18 11 12 7 -7 6 -14 -1 -21z m179 24 c-6 -2 -9 -10 -6 -15 4 -7 2 -8 -5
-4 -13 9 -5 26 12 25 9 0 8 -2 -1 -6z m4219 -20 c-12 -20 -14 -14 -5 12 4 9 9
14 11 11 3 -2 0 -13 -6 -23z m634 17 c-3 -5 -12 -10 -18 -10 -7 0 -6 4 3 10
19 12 23 12 15 0z m-5175 -4 c0 -3 -4 -8 -10 -11 -5 -3 -10 -1 -10 4 0 6 5 11
10 11 6 0 10 -2 10 -4z m424 -27 c-3 -6 -1 -15 6 -19 8 -5 7 -9 -5 -13 -9 -4
-13 -3 -10 3 3 6 -2 10 -11 10 -16 0 -16 1 2 15 23 18 27 18 18 4z m4097 -32
c-10 -9 -11 -8 -5 6 3 10 9 15 12 12 3 -3 0 -11 -7 -18z m-4161 -1 c0 -2 -17
-3 -37 -3 -32 -1 -34 0 -13 6 21 7 50 4 50 -3z m-174 -19 c4 -4 0 -7 -9 -7 -9
0 -18 4 -21 9 -7 10 20 9 30 -2z m302 2 c-11 -6 -24 -6 -34 -1 -12 7 -8 9 18
10 26 1 30 -1 16 -9z m75 4 c-7 -2 -19 -2 -25 0 -7 3 -2 5 12 5 14 0 19 -2 13
-5z m4544 -9 c-3 -3 -12 -4 -19 -1 -8 3 -5 6 6 6 11 1 17 -2 13 -5z m66 -1
c-7 -2 -21 -2 -30 0 -10 3 -4 5 12 5 17 0 24 -2 18 -5z m144 1 c-3 -3 -12 -4
-19 -1 -8 3 -5 6 6 6 11 1 17 -2 13 -5z m46 -1 c-7 -2 -19 -2 -25 0 -7 3 -2 5
12 5 14 0 19 -2 13 -5z m44 1 c-3 -3 -12 -4 -19 -1 -8 3 -5 6 6 6 11 1 17 -2
13 -5z m50 0 c-3 -3 -12 -4 -19 -1 -8 3 -5 6 6 6 11 1 17 -2 13 -5z m-5412
-14 c-3 -5 -16 -10 -28 -9 -21 0 -21 1 -2 9 28 12 37 12 30 0z m522 -6 c-3 -3
-12 -4 -19 -1 -8 3 -5 6 6 6 11 1 17 -2 13 -5z m4790 0 c-3 -3 -12 -4 -19 -1
-8 3 -5 6 6 6 11 1 17 -2 13 -5z m-897 -84 c-11 -22 -23 -40 -25 -40 -3 0 4
18 15 40 11 22 23 40 25 40 3 0 -4 -18 -15 -40z m357 4 c-3 -3 -12 -4 -19 -1
-8 3 -5 6 6 6 11 1 17 -2 13 -5z m18 -34 c-3 -5 -12 -10 -18 -10 -7 0 -6 4 3
10 19 12 23 12 15 0z m-38 -6 c-3 -3 -12 -4 -19 -1 -8 3 -5 6 6 6 11 1 17 -2
13 -5z m-3697 -104 c6 -11 8 -20 6 -20 -3 0 -10 9 -16 20 -6 11 -8 20 -6 20 3
0 10 -9 16 -20z m81 -127 c13 -16 12 -17 -3 -4 -10 7 -18 15 -18 17 0 8 8 3
21 -13z m6596 -104 c70 -15 123 -66 123 -118 0 -21 -4 -18 -22 19 -42 82 -25
80 -580 80 l-487 0 -10 -38 c-6 -21 -14 -53 -17 -70 -4 -18 -9 -31 -11 -28 -2
2 3 40 13 85 l17 81 463 0 c287 0 481 -4 511 -11z m-6506 -16 c13 -16 12 -17
-3 -4 -10 7 -18 15 -18 17 0 8 8 3 21 -13z m5066 5 c-2 -7 -13 -46 -23 -85
l-18 -73 -263 0 c-268 0 -298 -4 -321 -40 -18 -29 -102 -367 -96 -385 4 -8 15
-20 25 -25 10 -6 129 -10 280 -10 208 0 259 -3 252 -12 -6 -7 -18 -43 -28 -80
l-18 -68 -286 0 c-157 0 -302 4 -320 10 -47 13 -89 56 -102 102 -9 33 -2 68
51 280 34 133 70 258 81 279 23 46 74 86 131 104 60 19 662 21 655 3z m-4932
-148 c44 -44 77 -80 75 -80 -3 0 -41 36 -85 80 -44 44 -77 80 -75 80 3 0 41
-36 85 -80z m3781 45 c-9 -13 -37 -58 -62 -100 -25 -41 -48 -75 -50 -75 -6 0
11 31 54 100 19 30 41 65 48 78 8 12 17 22 20 22 4 0 -1 -11 -10 -25z m1581
-77 c-3 -8 -6 -5 -6 6 -1 11 2 17 5 13 3 -3 4 -12 1 -19z m-5232 -88 c10 -11
16 -20 13 -20 -3 0 -13 9 -23 20 -10 11 -16 20 -13 20 3 0 13 -9 23 -20z m50
-40 c10 -11 16 -20 13 -20 -3 0 -13 9 -23 20 -10 11 -16 20 -13 20 3 0 13 -9
23 -20z m-1215 -30 c-12 -16 -24 -30 -26 -30 -3 0 4 14 16 30 12 17 24 30 26
30 3 0 -4 -13 -16 -30z m7284 -13 c-14 -37 -75 -47 -297 -47 -119 0 -219 5
-227 10 -10 6 64 10 218 10 180 0 240 3 267 14 19 8 35 20 35 27 0 7 2 10 5 7
3 -3 3 -12 -1 -21z m-5923 -59 l24 -20 -31 17 c-17 10 -41 26 -55 37 l-24 20
31 -17 c17 -10 41 -26 55 -37z m205 -116 c-5 -4 -126 56 -126 63 0 3 29 -10
65 -27 35 -18 63 -34 61 -36z m64 -22 c8 -5 11 -10 5 -10 -5 0 -17 5 -25 10
-8 5 -10 10 -5 10 6 0 17 -5 25 -10z m50 -20 c8 -5 11 -10 5 -10 -5 0 -17 5
-25 10 -8 5 -10 10 -5 10 6 0 17 -5 25 -10z m5625 -100 c55 -55 97 -100 95
-100 -3 0 -50 45 -105 100 -55 55 -97 100 -95 100 3 0 50 -45 105 -100z
m-5525 63 c30 -11 31 -12 6 -8 -16 4 -43 13 -60 20 -23 11 -25 13 -6 8 14 -3
41 -12 60 -20z m4308 -25 c-3 -7 -13 -43 -23 -80 l-18 -68 -77 0 -78 0 20 80
20 80 80 0 c60 0 79 -3 76 -12z m1692 2 c0 -6 -31 -10 -74 -10 l-74 0 -12 -52
c-14 -59 -29 -94 -30 -68 0 8 4 31 9 50 5 19 12 47 15 63 6 27 7 27 86 27 47
0 80 -4 80 -10z m-5855 -14 c28 -8 43 -15 35 -15 -8 0 -37 6 -65 13 -27 8 -43
15 -35 15 8 0 38 -6 65 -13z m152 -32 c-3 -3 -12 -4 -19 -1 -8 3 -5 6 6 6 11
1 17 -2 13 -5z"/>
<path d="M4614 7349 c-25 -50 -43 -93 -41 -96 3 -2 22 31 42 74 21 43 42 86
47 96 5 9 6 17 3 17 -2 0 -25 -41 -51 -91z"/>
<path d="M4663 7323 c9 -2 25 -2 35 0 9 3 1 5 -18 5 -19 0 -27 -2 -17 -5z"/>
<path d="M4556 7225 c-9 -26 -7 -32 5 -12 6 10 9 21 6 23 -2 3 -7 -2 -11 -11z"/>
<path d="M4625 7140 c-3 -5 3 -10 14 -10 12 0 21 5 21 10 0 6 -6 10 -14 10 -8
0 -18 -4 -21 -10z"/>
<path d="M4590 7130 c0 -5 5 -10 11 -10 5 0 7 5 4 10 -3 6 -8 10 -11 10 -2 0
-4 -4 -4 -10z"/>
<path d="M4937 7095 c-24 -50 -20 -58 4 -12 11 22 19 41 17 43 -3 2 -12 -12
-21 -31z"/>
<path d="M4670 7110 c-8 -5 -10 -10 -5 -10 6 0 17 5 25 10 8 5 11 10 5 10 -5
0 -17 -5 -25 -10z"/>
<path d="M4730 7110 c0 -6 7 -10 15 -10 8 0 15 2 15 4 0 2 -7 6 -15 10 -8 3
-15 1 -15 -4z"/>
<path d="M4778 7103 c7 -3 16 -2 19 1 4 3 -2 6 -13 5 -11 0 -14 -3 -6 -6z"/>
<path d="M4898 7103 c6 -2 18 -2 25 0 6 3 1 5 -13 5 -14 0 -19 -2 -12 -5z"/>
<path d="M4573 7093 c-13 -2 -23 -8 -23 -13 0 -11 40 -4 54 10 10 10 8 11 -31
3z"/>
<path d="M4690 7075 c9 -10 17 -12 23 -6 5 5 17 7 26 4 9 -4 13 -3 9 2 -4 4
-21 9 -39 11 -27 3 -30 2 -19 -11z"/>
<path d="M4807 7079 c7 -7 15 -10 18 -7 3 3 -2 9 -12 12 -14 6 -15 5 -6 -5z"/>
<path d="M4775 7060 c10 -11 22 -20 26 -20 5 0 1 9 -8 20 -10 11 -22 20 -27
20 -5 0 -1 -9 9 -20z"/>
<path d="M4620 7039 c0 -5 5 -7 10 -4 6 3 10 8 10 11 0 2 -4 4 -10 4 -5 0 -10
-5 -10 -11z"/>
<path d="M4720 7030 c-12 -8 -10 -10 8 -10 13 0 20 4 17 10 -7 12 -6 12 -25 0z"/>
<path d="M4810 7020 c0 -5 10 -10 23 -10 18 0 19 2 7 10 -19 13 -30 13 -30 0z"/>
<path d="M4638 7013 c7 -3 16 -2 19 1 4 3 -2 6 -13 5 -11 0 -14 -3 -6 -6z"/>
<path d="M4827 6979 c-9 -5 -22 -7 -27 -4 -6 3 -10 1 -10 -4 0 -16 23 -13 46
4 22 17 17 19 -9 4z"/>
<path d="M8110 7238 c0 -4 9 -31 20 -59 12 -29 19 -58 16 -65 -3 -7 0 -15 7
-17 7 -3 -1 -19 -23 -43 -19 -21 -23 -29 -9 -16 26 23 49 29 49 13 0 -5 -3
-11 -7 -14 -5 -2 -2 -2 5 -1 6 2 12 -3 12 -11 0 -7 -8 -16 -17 -18 -14 -4 -12
-5 5 -6 21 -1 33 -31 12 -31 -5 0 -10 -4 -10 -10 0 -5 5 -9 11 -7 6 1 14 -4
17 -12 5 -14 4 -14 -93 7 -25 5 -50 4 -65 -2 -35 -14 -36 -16 -20 -27 10 -5
11 -12 5 -16 -16 -12 -15 -30 0 -30 8 0 12 4 9 8 -10 16 16 59 36 59 23 0 24
-4 10 -31 -6 -11 -7 -19 -3 -18 20 3 34 -2 28 -10 -3 -6 11 -13 32 -16 62 -11
62 -16 2 -10 -39 3 -60 1 -67 -8 -9 -10 -4 -12 22 -9 19 2 37 -1 40 -7 5 -7
-11 -11 -51 -12 -32 0 -77 -1 -100 -2 -29 -1 -44 3 -52 15 -8 13 -7 18 7 21
13 4 12 5 -4 6 -27 1 -40 -26 -16 -32 14 -4 13 -6 -5 -12 -28 -9 -31 -25 -3
-18 12 3 20 0 20 -6 0 -7 -4 -10 -9 -7 -5 3 -11 -4 -14 -15 -5 -17 -12 -20
-31 -17 -14 3 -23 1 -20 -3 3 -5 0 -9 -5 -9 -6 0 -11 8 -11 19 0 10 -3 33 -6
50 -6 29 -5 31 24 31 17 0 34 5 37 10 4 7 -8 8 -34 4 -28 -4 -41 -3 -41 5 0 6
12 12 28 12 l27 1 -29 7 c-34 7 -45 27 -19 34 12 3 9 5 -9 6 l-26 1 13 -43 c7
-24 18 -77 25 -119 l12 -75 204 -2 204 -2 0 29 c0 65 -43 270 -80 383 -35 108
-59 166 -60 147z m30 -308 c12 -8 11 -10 -7 -10 -13 0 -23 5 -23 10 0 13 11
13 30 0z m70 -28 c0 -10 -38 -13 -44 -3 -3 3 6 8 20 9 13 1 24 -2 24 -6z m-60
-12 c0 -5 -2 -10 -4 -10 -3 0 -8 5 -11 10 -3 6 -1 10 4 10 6 0 11 -4 11 -10z
m70 -42 c0 -19 -16 -5 -17 14 -2 18 0 20 7 8 5 -8 10 -18 10 -22z m0 -30 c0
-4 -9 -8 -21 -8 -11 0 -18 4 -15 8 3 5 12 9 21 9 8 0 15 -4 15 -9z m-52 -29
c36 1 62 -4 62 -9 0 -7 -26 -9 -72 -5 -40 3 -93 5 -119 5 -25 -1 -56 4 -70 9
-17 7 -2 8 56 5 44 -3 108 -5 143 -5z m-168 -29 c0 -5 -7 -10 -15 -10 -9 0
-12 -6 -9 -17 5 -14 4 -15 -4 -4 -9 12 -13 12 -27 -2 -9 -10 -19 -17 -22 -17
-6 0 17 32 32 42 6 5 4 8 -4 8 -7 0 -22 -10 -32 -22 -22 -24 -25 -17 -7 12 9
14 24 20 50 20 21 0 38 -4 38 -10z m80 0 c-18 -12 -50 -13 -50 -2 0 4 15 8 33
9 23 2 28 0 17 -7z m150 -9 c0 -5 -9 -7 -20 -4 -11 3 -20 7 -20 9 0 2 9 4 20
4 11 0 20 -4 20 -9z m-20 -21 c0 -5 -8 -10 -17 -10 -15 0 -16 2 -3 10 19 12
20 12 20 0z m24 -15 c3 -8 1 -15 -4 -15 -6 0 -10 7 -10 15 0 8 2 15 4 15 2 0
6 -7 10 -15z"/>
<path d="M8009 7133 c-13 -17 -13 -17 6 -3 11 8 22 16 24 17 2 2 0 3 -6 3 -6
0 -17 -8 -24 -17z"/>
<path d="M8098 7103 c7 -3 16 -2 19 1 4 3 -2 6 -13 5 -11 0 -14 -3 -6 -6z"/>
<path d="M7760 7025 c0 -5 5 -17 10 -25 5 -8 10 -10 10 -5 0 6 -5 17 -10 25
-5 8 -10 11 -10 5z"/>
<path d="M8065 7010 c3 -5 10 -10 16 -10 5 0 9 5 9 10 0 6 -7 10 -16 10 -8 0
-12 -4 -9 -10z"/>
<path d="M7968 7003 c6 -2 18 -2 25 0 6 3 1 5 -13 5 -14 0 -19 -2 -12 -5z"/>
<path d="M7998 6981 c-31 -4 -60 -10 -65 -15 -5 -5 6 -6 26 -2 18 3 67 6 109
6 41 0 73 2 71 4 -8 9 -85 12 -141 7z"/>
<path d="M7790 6942 c0 -4 17 -6 38 -4 58 5 62 10 10 11 -27 1 -48 -3 -48 -7z"/>
<path d="M7930 6946 c0 -9 30 -14 35 -6 4 6 -3 10 -14 10 -12 0 -21 -2 -21 -4z"/>
<path d="M7828 6893 c6 -2 18 -2 25 0 6 3 1 5 -13 5 -14 0 -19 -2 -12 -5z"/>
<path d="M7906 6882 c-2 -4 4 -8 14 -8 10 0 16 4 14 8 -3 4 -9 8 -14 8 -5 0
-11 -4 -14 -8z"/>
<path d="M8051 6866 c-12 -15 -64 -19 -55 -5 3 5 -4 9 -15 9 -14 0 -19 -5 -15
-15 7 -17 7 -17 47 -19 16 -1 31 3 35 9 4 7 16 17 27 23 16 9 17 11 4 12 -9 0
-22 -6 -28 -14z"/>
<path d="M1680 8340 c-23 -7 -23 -8 -3 -9 12 -1 25 4 28 9 3 6 5 10 3 9 -2 -1
-14 -5 -28 -9z"/>
<path d="M1743 8343 c15 -2 37 -2 50 0 12 2 0 4 -28 4 -27 0 -38 -2 -22 -4z"/>
<path d="M1595 8335 c-5 -1 -36 -8 -68 -15 -32 -6 -56 -14 -54 -17 6 -5 157
26 157 33 0 4 -20 4 -35 -1z"/>
<path d="M1490 8281 c0 -6 4 -12 8 -15 5 -3 9 1 9 9 0 8 -4 15 -9 15 -4 0 -8
-4 -8 -9z"/>
<path d="M1605 8250 c7 -11 45 -20 45 -10 0 4 -11 10 -25 12 -13 3 -22 2 -20
-2z"/>
<path d="M2108 8233 c7 -3 16 -2 19 1 4 3 -2 6 -13 5 -11 0 -14 -3 -6 -6z"/>
<path d="M1836 8222 c-3 -6 -1 -14 5 -17 14 -9 20 -2 10 14 -6 8 -11 9 -15 3z"/>
<path d="M1878 8223 c6 -2 18 -2 25 0 6 3 1 5 -13 5 -14 0 -19 -2 -12 -5z"/>
<path d="M1879 8203 c-1 -5 -1 -11 0 -15 0 -4 -27 -5 -62 -3 -40 3 -53 2 -37
-4 39 -12 100 -20 101 -13 0 4 2 15 4 25 2 9 1 17 -1 17 -2 0 -5 -3 -5 -7z"/>
<path d="M1905 8190 c3 -5 12 -7 20 -3 21 7 19 13 -6 13 -11 0 -18 -4 -14 -10z"/>
<path d="M1775 8150 c3 -5 13 -10 21 -10 8 0 14 5 14 10 0 6 -9 10 -21 10 -11
0 -17 -4 -14 -10z"/>
<path d="M1909 8130 c13 -11 28 -20 35 -19 6 0 1 5 -11 11 -13 6 -23 15 -23
20 0 4 -6 8 -12 8 -7 -1 -2 -10 11 -20z"/>
<path d="M1960 8120 c0 -5 5 -10 11 -10 5 0 7 5 4 10 -3 6 -8 10 -11 10 -2 0
-4 -4 -4 -10z"/>
<path d="M1770 8110 c0 -13 30 -13 50 0 11 7 7 10 -17 10 -18 0 -33 -4 -33
-10z"/>
<path d="M1887 8109 c7 -7 15 -10 18 -7 3 3 -2 9 -12 12 -14 6 -15 5 -6 -5z"/>
<path d="M1928 8093 c7 -3 16 -2 19 1 4 3 -2 6 -13 5 -11 0 -14 -3 -6 -6z"/>
<path d="M1977 8086 c-7 -17 18 -42 27 -27 4 5 -2 11 -11 13 -12 2 -14 6 -6
11 6 4 17 2 25 -5 7 -7 22 -14 33 -15 11 -1 14 0 7 3 -6 3 -10 9 -8 13 3 4 -3
7 -12 7 -9 1 -24 4 -33 8 -10 5 -19 2 -22 -8z"/>
<path d="M2060 8091 c0 -5 7 -12 16 -15 14 -5 15 -4 4 9 -14 17 -20 19 -20 6z"/>
<path d="M2240 8080 c0 -6 7 -10 15 -10 8 0 15 2 15 4 0 2 -7 6 -15 10 -8 3
-15 1 -15 -4z"/>
<path d="M2293 8073 c9 -2 23 -2 30 0 6 3 -1 5 -18 5 -16 0 -22 -2 -12 -5z"/>
<path d="M2030 8040 c11 -9 12 -13 3 -17 -18 -7 -16 -20 3 -27 19 -7 54 10 53
27 0 9 -2 9 -6 0 -2 -7 -12 -13 -21 -13 -14 0 -15 2 -2 10 17 11 14 15 -20 24
-20 6 -22 5 -10 -4z"/>
<path d="M2270 8040 c0 -5 5 -10 10 -10 6 0 10 5 10 10 0 6 -4 10 -10 10 -5 0
-10 -4 -10 -10z"/>
<path d="M2123 8023 c9 -2 17 -9 17 -14 0 -5 8 -9 17 -9 15 0 14 2 -3 15 -10
8 -26 14 -34 14 -11 -1 -10 -3 3 -6z"/>
<path d="M2207 7997 c-3 -8 1 -14 9 -14 7 0 11 4 8 8 -2 4 2 10 8 12 8 4 7 6
-3 6 -9 1 -19 -5 -22 -12z"/>
<path d="M2260 7950 c0 -6 7 -10 15 -10 8 0 15 2 15 4 0 2 -7 6 -15 10 -8 3
-15 1 -15 -4z"/>
<path d="M2348 7953 c7 -3 16 -2 19 1 4 3 -2 6 -13 5 -11 0 -14 -3 -6 -6z"/>
<path d="M2210 7940 c-9 -6 -10 -10 -3 -10 6 0 15 5 18 10 8 12 4 12 -15 0z"/>
<path d="M2054 7922 c4 -7 1 -12 -6 -12 -10 0 -10 -2 1 -9 7 -5 11 -13 7 -19
-3 -6 -1 -14 5 -18 8 -5 9 -3 4 6 -6 9 -4 12 6 8 10 -4 14 3 15 21 1 14 -1 20
-3 14 -3 -7 -9 -13 -14 -13 -6 0 -8 4 -4 9 3 5 0 13 -6 17 -8 4 -9 3 -5 -4z"/>
<path d="M1997 7906 c-3 -7 -1 -18 5 -24 12 -12 41 -4 32 9 -3 5 -11 6 -17 2
-7 -4 -6 0 2 10 11 15 11 17 -2 17 -8 0 -17 -6 -20 -14z"/>
<path d="M2120 7901 c0 -6 9 -8 21 -6 16 3 18 1 10 -9 -9 -10 -8 -15 5 -20 9
-4 19 -4 22 -1 3 3 0 5 -7 5 -8 0 -10 7 -6 20 5 16 2 20 -19 20 -14 0 -26 -4
-26 -9z"/>
<path d="M2284 7878 c3 -15 26 -23 26 -8 0 6 -4 9 -9 6 -5 -4 -12 -1 -14 4 -3
6 -4 5 -3 -2z"/>
<path d="M2330 7870 c0 -5 5 -10 10 -10 6 0 10 5 10 10 0 6 -4 10 -10 10 -5 0
-10 -4 -10 -10z"/>
<path d="M2480 7866 c0 -2 11 -6 25 -8 14 -3 25 -1 25 3 0 5 -11 9 -25 9 -14
0 -25 -2 -25 -4z"/>
<path d="M2075 7850 c-3 -6 1 -7 9 -4 18 7 21 14 7 14 -6 0 -13 -4 -16 -10z"/>
<path d="M2177 7838 c-3 -10 3 -14 22 -14 16 0 28 5 28 13 0 10 -4 10 -14 1
-11 -9 -16 -9 -22 1 -7 10 -9 10 -14 -1z"/>
<path d="M2280 7841 c0 -5 7 -11 14 -14 10 -4 13 -1 9 9 -6 15 -23 19 -23 5z"/>
<path d="M2540 7815 c7 -8 17 -15 22 -15 5 0 3 7 -6 15 -8 8 -18 15 -22 15 -3
0 -1 -7 6 -15z"/>
<path d="M2350 7810 c-9 -6 -10 -10 -3 -10 6 0 15 5 18 10 8 12 4 12 -15 0z"/>
<path d="M2210 7800 c0 -6 12 -8 26 -6 39 7 42 16 6 16 -18 0 -32 -5 -32 -10z"/>
<path d="M2395 7800 c-3 -5 -1 -10 4 -10 6 0 11 5 11 10 0 6 -2 10 -4 10 -3 0
-8 -4 -11 -10z"/>
<path d="M2155 7790 c3 -5 12 -7 20 -3 21 7 19 13 -6 13 -11 0 -18 -4 -14 -10z"/>
<path d="M2245 7770 c-4 -7 3 -8 22 -4 38 9 42 14 10 14 -14 0 -29 -5 -32 -10z"/>
<path d="M2375 7771 c-3 -5 -20 -13 -37 -16 -26 -6 -68 -33 -56 -36 23 -6 46
-3 45 5 -1 5 7 11 18 13 16 3 17 2 5 -6 -8 -6 -10 -11 -4 -11 5 0 19 7 30 15
13 10 14 14 5 15 -11 0 -11 3 -1 15 7 8 10 15 7 15 -3 0 -8 -4 -12 -9z"/>
<path d="M2430 7770 c-8 -5 -10 -10 -5 -10 6 0 17 5 25 10 8 5 11 10 5 10 -5
0 -17 -5 -25 -10z"/>
<path d="M2508 7693 c7 -3 16 -2 19 1 4 3 -2 6 -13 5 -11 0 -14 -3 -6 -6z"/>
<path d="M2568 7693 c7 -3 16 -2 19 1 4 3 -2 6 -13 5 -11 0 -14 -3 -6 -6z"/>
<path d="M2608 7693 c7 -3 16 -2 19 1 4 3 -2 6 -13 5 -11 0 -14 -3 -6 -6z"/>
<path d="M2688 7693 c7 -3 16 -2 19 1 4 3 -2 6 -13 5 -11 0 -14 -3 -6 -6z"/>
<path d="M2728 7693 c7 -3 16 -2 19 1 4 3 -2 6 -13 5 -11 0 -14 -3 -6 -6z"/>
<path d="M3078 6723 c7 -3 16 -2 19 1 4 3 -2 6 -13 5 -11 0 -14 -3 -6 -6z"/>
<path d="M3158 6723 c7 -3 16 -2 19 1 4 3 -2 6 -13 5 -11 0 -14 -3 -6 -6z"/>
<path d="M3298 6713 c6 -2 18 -2 25 0 6 3 1 5 -13 5 -14 0 -19 -2 -12 -5z"/>
<path d="M2905 6700 c-4 -6 3 -10 14 -10 25 0 27 6 6 13 -8 4 -17 2 -20 -3z"/>
<path d="M3348 6703 c7 -3 16 -2 19 1 4 3 -2 6 -13 5 -11 0 -14 -3 -6 -6z"/>
<path d="M2830 6690 c-9 -6 -10 -10 -3 -10 6 0 15 5 18 10 8 12 4 12 -15 0z"/>
<path d="M2868 6693 c7 -3 16 -2 19 1 4 3 -2 6 -13 5 -11 0 -14 -3 -6 -6z"/>
<path d="M2959 6673 c-13 -16 -12 -17 4 -4 9 7 17 15 17 17 0 8 -8 3 -21 -13z"/>
<path d="M3166 6656 c-26 -8 -56 -12 -65 -9 -10 2 -23 -3 -30 -11 -11 -13 -11
-16 3 -16 9 0 16 4 16 9 0 5 10 9 23 9 41 0 107 15 107 23 0 5 -1 9 -2 8 -2 0
-25 -6 -52 -13z"/>
<path d="M3500 6660 c8 -5 20 -10 25 -10 6 0 3 5 -5 10 -8 5 -19 10 -25 10 -5
0 -3 -5 5 -10z"/>
<path d="M3550 6640 c8 -5 20 -10 25 -10 6 0 3 5 -5 10 -8 5 -19 10 -25 10 -5
0 -3 -5 5 -10z"/>
<path d="M3030 6630 c0 -5 5 -10 11 -10 5 0 7 5 4 10 -3 6 -8 10 -11 10 -2 0
-4 -4 -4 -10z"/>
<path d="M3080 6600 c-20 -6 -21 -8 -5 -8 11 0 29 3 40 8 25 11 -1 11 -35 0z"/>
<path d="M3323 6583 c9 -2 23 -2 30 0 6 3 -1 5 -18 5 -16 0 -22 -2 -12 -5z"/>
<path d="M3230 6510 c0 -5 5 -10 11 -10 5 0 7 5 4 10 -3 6 -8 10 -11 10 -2 0
-4 -4 -4 -10z"/>
<path d="M3830 6445 c30 -30 57 -55 59 -55 3 0 -19 25 -49 55 -30 30 -57 55
-59 55 -3 0 19 -25 49 -55z"/>
<path d="M3260 6482 c0 -4 9 -8 19 -8 11 0 17 4 15 8 -3 4 -12 8 -20 8 -8 0
-14 -4 -14 -8z"/>
<path d="M3543 6483 c9 -2 23 -2 30 0 6 3 -1 5 -18 5 -16 0 -22 -2 -12 -5z"/>
<path d="M3210 6449 c0 -5 23 -9 52 -9 28 0 49 2 46 5 -9 9 -98 13 -98 4z"/>
<path d="M3340 6425 c-7 -8 -8 -15 -2 -15 5 0 15 7 22 15 7 8 8 15 2 15 -5 0
-15 -7 -22 -15z"/>
<path d="M3195 6390 c4 -6 11 -8 16 -5 14 9 11 15 -7 15 -8 0 -12 -5 -9 -10z"/>
<path d="M3910 6356 c0 -2 8 -10 18 -17 15 -13 16 -12 3 4 -13 16 -21 21 -21
13z"/>
<path d="M3295 6296 c17 -13 32 -22 35 -19 7 6 -39 43 -54 43 -6 0 3 -11 19
-24z"/>
<path d="M3320 6316 c0 -2 8 -10 18 -17 15 -13 16 -12 3 4 -13 16 -21 21 -21
13z"/>
<path d="M3955 6296 c10 -14 19 -26 22 -26 7 0 -17 39 -28 46 -6 3 -3 -5 6
-20z"/>
<path d="M3370 6306 c0 -2 7 -7 16 -10 8 -3 12 -2 9 4 -6 10 -25 14 -25 6z"/>
<path d="M3433 6299 c-10 -4 2 -6 29 -5 25 0 44 3 41 6 -7 7 -49 7 -70 -1z"/>
<path d="M3370 6270 c0 -5 5 -10 11 -10 5 0 7 5 4 10 -3 6 -8 10 -11 10 -2 0
-4 -4 -4 -10z"/>
<path d="M3538 6243 c6 -2 18 -2 25 0 6 3 1 5 -13 5 -14 0 -19 -2 -12 -5z"/>
<path d="M3500 6200 c0 -5 5 -10 10 -10 6 0 10 5 10 10 0 6 -4 10 -10 10 -5 0
-10 -4 -10 -10z"/>
<path d="M3458 6193 c7 -3 16 -2 19 1 4 3 -2 6 -13 5 -11 0 -14 -3 -6 -6z"/>
<path d="M3718 6193 c7 -3 16 -2 19 1 4 3 -2 6 -13 5 -11 0 -14 -3 -6 -6z"/>
<path d="M3978 6193 c7 -3 16 -2 19 1 4 3 -2 6 -13 5 -11 0 -14 -3 -6 -6z"/>
<path d="M3663 6183 c9 -2 23 -2 30 0 6 3 -1 5 -18 5 -16 0 -22 -2 -12 -5z"/>
<path d="M3838 6163 c7 -3 16 -2 19 1 4 3 -2 6 -13 5 -11 0 -14 -3 -6 -6z"/>
<path d="M3410 6105 c-10 -12 -9 -15 4 -15 10 0 14 5 11 10 -3 6 -2 10 4 10 5
0 11 -6 14 -12 2 -7 8 -10 12 -6 10 9 -3 28 -19 28 -8 0 -19 -7 -26 -15z"/>
<path d="M3603 6113 c9 -2 15 -8 13 -11 -2 -4 7 -8 20 -8 23 -2 24 -1 7 12
-10 7 -27 13 -38 13 -17 -1 -17 -2 -2 -6z"/>
<path d="M3770 6110 c0 -5 5 -10 11 -10 5 0 7 5 4 10 -3 6 -8 10 -11 10 -2 0
-4 -4 -4 -10z"/>
<path d="M3895 6110 c4 -6 11 -8 16 -5 14 9 11 15 -7 15 -8 0 -12 -5 -9 -10z"/>
<path d="M3550 6095 c-8 -9 -8 -15 -2 -15 12 0 26 19 19 26 -2 2 -10 -2 -17
-11z"/>
<path d="M3930 6106 c0 -9 30 -14 35 -6 4 6 -3 10 -14 10 -12 0 -21 -2 -21 -4z"/>
<path d="M3813 6083 c9 -2 25 -2 35 0 9 3 1 5 -18 5 -19 0 -27 -2 -17 -5z"/>
<path d="M3898 6078 c6 -6 18 -8 28 -6 14 3 12 5 -9 10 -19 3 -25 2 -19 -4z"/>
<path d="M3998 6083 c7 -3 16 -2 19 1 4 3 -2 6 -13 5 -11 0 -14 -3 -6 -6z"/>
<path d="M3678 6060 c-7 -11 -21 -20 -31 -20 -10 0 -15 -5 -12 -10 4 -7 12 -7
25 0 10 5 25 8 32 5 7 -3 22 2 33 10 19 16 19 16 -2 6 -30 -15 -32 -14 -28 9
2 11 2 20 0 20 -3 0 -10 -9 -17 -20z"/>
<path d="M3890 6048 c0 -13 48 -13 62 0 4 4 -9 7 -28 8 -19 0 -34 -3 -34 -8z"/>
<path d="M3790 6030 c0 -5 5 -10 10 -10 6 0 10 5 10 10 0 6 -4 10 -10 10 -5 0
-10 -4 -10 -10z"/>
<path d="M3845 6024 c-47 -24 -44 -25 40 -20 116 6 124 8 85 15 -19 4 -52 4
-73 0 -31 -5 -35 -4 -26 7 15 18 11 17 -26 -2z"/>
<path d="M4018 6003 c7 -3 16 -2 19 1 4 3 -2 6 -13 5 -11 0 -14 -3 -6 -6z"/>
<path d="M3938 5983 c7 -3 16 -2 19 1 4 3 -2 6 -13 5 -11 0 -14 -3 -6 -6z"/>
<path d="M4018 5973 c6 -2 18 -2 25 0 6 3 1 5 -13 5 -14 0 -19 -2 -12 -5z"/>
<path d="M11645 7990 c3 -5 14 -10 23 -10 15 0 15 2 2 10 -20 13 -33 13 -25 0z"/>
<path d="M11718 7993 c7 -3 16 -2 19 1 4 3 -2 6 -13 5 -11 0 -14 -3 -6 -6z"/>
<path d="M11308 7933 c7 -3 16 -2 19 1 4 3 -2 6 -13 5 -11 0 -14 -3 -6 -6z"/>
<path d="M11535 7930 c-8 -13 5 -13 25 0 13 8 13 10 -2 10 -9 0 -20 -4 -23
-10z"/>
<path d="M11638 7933 c7 -3 16 -2 19 1 4 3 -2 6 -13 5 -11 0 -14 -3 -6 -6z"/>
<path d="M11696 7924 c-3 -8 -10 -13 -14 -10 -5 3 -9 -1 -9 -9 0 -21 6 -19 33
10 15 16 18 25 10 25 -8 0 -17 -7 -20 -16z"/>
<path d="M11445 7920 c28 -12 37 -12 30 0 -3 6 -16 10 -28 9 -21 0 -21 -1 -2
-9z"/>
<path d="M11624 7906 c24 -19 36 -20 36 -4 0 6 -3 8 -6 5 -4 -3 -16 -2 -28 4
-20 10 -20 10 -2 -5z"/>
<path d="M11760 7912 c-25 -9 -6 -17 31 -14 29 3 40 1 35 -7 -5 -7 1 -11 14
-11 20 0 21 1 4 18 -16 15 -58 22 -84 14z"/>
<path d="M11865 7911 c-3 -6 3 -9 14 -8 11 0 17 5 15 9 -7 11 -22 10 -29 -1z"/>
<path d="M11427 7903 c-4 -3 -7 -11 -7 -17 0 -6 5 -5 12 2 6 6 9 14 7 17 -3 3
-9 2 -12 -2z"/>
<path d="M11560 7898 c0 -11 12 -10 30 2 12 7 10 9 -8 7 -12 0 -22 -5 -22 -9z"/>
<path d="M11468 7893 c6 -2 18 -2 25 0 6 3 1 5 -13 5 -14 0 -19 -2 -12 -5z"/>
<path d="M11550 7866 c0 -8 7 -16 15 -20 13 -4 14 -2 5 14 -13 23 -20 26 -20
6z"/>
<path d="M11738 7873 c7 -3 16 -2 19 1 4 3 -2 6 -13 5 -11 0 -14 -3 -6 -6z"/>
<path d="M11910 7870 c0 -5 5 -10 11 -10 5 0 7 5 4 10 -3 6 -8 10 -11 10 -2 0
-4 -4 -4 -10z"/>
<path d="M11471 7859 c-18 -6 -31 -12 -29 -14 2 -3 21 0 41 6 21 5 42 7 49 3
7 -4 8 -3 4 4 -8 14 -18 14 -65 1z"/>
<path d="M11360 7830 c8 -5 20 -10 25 -10 6 0 3 5 -5 10 -8 5 -19 10 -25 10
-5 0 -3 -5 5 -10z"/>
<path d="M11525 7810 c-3 -5 -1 -10 4 -10 6 0 11 5 11 10 0 6 -2 10 -4 10 -3
0 -8 -4 -11 -10z"/>
<path d="M11330 7806 c0 -2 11 -6 25 -8 14 -3 25 -1 25 3 0 5 -11 9 -25 9 -14
0 -25 -2 -25 -4z"/>
<path d="M11290 7784 c-17 -9 -20 -14 -9 -14 9 0 22 7 29 15 15 18 13 18 -20
-1z"/>
<path d="M11398 7753 c6 -2 18 -2 25 0 6 3 1 5 -13 5 -14 0 -19 -2 -12 -5z"/>
<path d="M11325 7731 c-2 -5 4 -11 15 -14 11 -3 20 -2 20 3 0 12 -28 21 -35
11z"/>
<path d="M11360 7689 c0 -5 5 -7 10 -4 6 3 10 8 10 11 0 2 -4 4 -10 4 -5 0
-10 -5 -10 -11z"/>
<path d="M11347 7659 c8 -8 16 -8 30 0 16 9 14 10 -11 11 -22 0 -27 -3 -19
-11z"/>
<path d="M11350 7634 c-17 -10 -20 -14 -8 -14 23 0 48 11 48 21 0 12 -9 10
-40 -7z"/>
<path d="M11220 7626 c0 -9 30 -14 35 -6 4 6 -3 10 -14 10 -12 0 -21 -2 -21
-4z"/>
<path d="M11318 7593 c7 -3 16 -2 19 1 4 3 -2 6 -13 5 -11 0 -14 -3 -6 -6z"/>
<path d="M11292 7574 c10 -10 20 -15 24 -12 3 4 -5 12 -18 18 -22 12 -22 12
-6 -6z"/>
<path d="M9363 6673 c53 -2 141 -2 195 0 53 1 9 3 -98 3 -107 0 -151 -2 -97
-3z"/>
<path d="M9683 6673 c15 -2 37 -2 50 0 12 2 0 4 -28 4 -27 0 -38 -2 -22 -4z"/>
<path d="M9768 6673 c7 -3 16 -2 19 1 4 3 -2 6 -13 5 -11 0 -14 -3 -6 -6z"/>
<path d="M10130 6650 c-18 -12 -2 -12 25 0 13 6 15 9 5 9 -8 0 -22 -4 -30 -9z"/>
<path d="M10205 6650 c-3 -5 10 -8 29 -8 18 0 39 3 45 8 7 4 -5 7 -28 7 -23 0
-44 -3 -46 -7z"/>
<path d="M9875 6635 c-16 -8 -23 -14 -14 -15 8 0 24 7 35 15 23 18 18 18 -21
0z"/>
<path d="M9770 6610 c-9 -6 -10 -10 -3 -10 6 0 15 5 18 10 8 12 4 12 -15 0z"/>
<path d="M9413 6603 c9 -2 23 -2 30 0 6 3 -1 5 -18 5 -16 0 -22 -2 -12 -5z"/>
<path d="M9628 6583 c7 -3 16 -2 19 1 4 3 -2 6 -13 5 -11 0 -14 -3 -6 -6z"/>
<path d="M9438 6573 c7 -3 16 -2 19 1 4 3 -2 6 -13 5 -11 0 -14 -3 -6 -6z"/>
<path d="M9488 6573 c12 -2 32 -2 45 0 12 2 2 4 -23 4 -25 0 -35 -2 -22 -4z"/>
<path d="M9906 6573 c5 -5 12 -12 16 -18 4 -6 8 -2 8 8 0 9 -7 17 -17 17 -9 0
-12 -3 -7 -7z"/>
<path d="M9790 6560 c-9 -6 -10 -10 -3 -10 6 0 15 5 18 10 8 12 4 12 -15 0z"/>
<path d="M9940 6551 c0 -5 7 -12 16 -15 14 -5 15 -4 4 9 -14 17 -20 19 -20 6z"/>
<path d="M9438 6543 c7 -3 16 -2 19 1 4 3 -2 6 -13 5 -11 0 -14 -3 -6 -6z"/>
<path d="M8885 6514 c-9 -15 -12 -23 -6 -20 11 7 35 46 28 46 -3 0 -12 -12
-22 -26z"/>
<path d="M9690 6520 c0 -5 7 -7 15 -4 8 4 15 8 15 10 0 2 -7 4 -15 4 -8 0 -15
-4 -15 -10z"/>
<path d="M9875 6520 c-8 -13 3 -30 18 -29 9 0 9 2 0 5 -7 3 -9 12 -6 20 6 16
-3 19 -12 4z"/>
<path d="M9790 6510 c-8 -5 -10 -10 -5 -10 6 0 17 5 25 10 8 5 11 10 5 10 -5
0 -17 -5 -25 -10z"/>
<path d="M9835 6510 c4 -6 11 -8 16 -5 14 9 11 15 -7 15 -8 0 -12 -5 -9 -10z"/>
<path d="M9940 6510 c0 -5 5 -10 10 -10 6 0 10 5 10 10 0 6 -4 10 -10 10 -5 0
-10 -4 -10 -10z"/>
<path d="M9635 6500 c-4 -6 3 -10 14 -10 25 0 27 6 6 13 -8 4 -17 2 -20 -3z"/>
<path d="M9540 6480 c0 -5 7 -10 15 -10 8 0 15 5 15 10 0 6 -7 10 -15 10 -8 0
-15 -4 -15 -10z"/>
<path d="M9258 6463 c7 -3 16 -2 19 1 4 3 -2 6 -13 5 -11 0 -14 -3 -6 -6z"/>
<path d="M9507 6459 c7 -7 15 -10 18 -7 3 3 -2 9 -12 12 -14 6 -15 5 -6 -5z"/>
<path d="M9601 6465 c3 -2 30 -7 60 -10 37 -3 49 -2 39 5 -15 9 -108 15 -99 5z"/>
<path d="M9721 6466 c12 -13 67 -24 80 -15 11 7 11 9 -2 9 -9 0 -32 3 -50 6
-19 4 -31 4 -28 0z"/>
<path d="M9213 6433 c9 -2 23 -2 30 0 6 3 -1 5 -18 5 -16 0 -22 -2 -12 -5z"/>
<path d="M9298 6433 c6 -2 18 -2 25 0 6 3 1 5 -13 5 -14 0 -19 -2 -12 -5z"/>
<path d="M9700 6430 c-12 -8 -10 -10 8 -10 13 0 20 4 17 10 -7 12 -6 12 -25 0z"/>
<path d="M8812 6389 c-12 -21 -21 -39 -18 -39 7 0 49 71 44 75 -2 2 -14 -14
-26 -36z"/>
<path d="M9629 6419 c-10 -6 -7 -9 14 -9 29 0 35 5 14 13 -8 3 -20 1 -28 -4z"/>
<path d="M9288 6403 c7 -3 16 -2 19 1 4 3 -2 6 -13 5 -11 0 -14 -3 -6 -6z"/>
<path d="M9568 6403 c6 -2 18 -2 25 0 6 3 1 5 -13 5 -14 0 -19 -2 -12 -5z"/>
<path d="M9635 6390 c-13 -6 -5 -7 25 -3 25 3 47 7 49 9 9 8 -55 2 -74 -6z"/>
<path d="M9250 6375 c7 -9 15 -13 17 -11 7 7 -7 26 -19 26 -6 0 -6 -6 2 -15z"/>
<path d="M9348 6383 c7 -3 16 -2 19 1 4 3 -2 6 -13 5 -11 0 -14 -3 -6 -6z"/>
<path d="M8751 6292 c-17 -27 -31 -53 -31 -57 0 -5 13 11 28 36 42 66 44 69
39 69 -3 0 -19 -22 -36 -48z"/>
<path d="M9125 6330 c-3 -6 1 -7 9 -4 18 7 21 14 7 14 -6 0 -13 -4 -16 -10z"/>
<path d="M9218 6333 c7 -3 16 -2 19 1 4 3 -2 6 -13 5 -11 0 -14 -3 -6 -6z"/>
<path d="M9314 6325 c4 -10 -1 -15 -14 -15 -11 0 -20 -4 -20 -9 0 -10 48 -2
56 10 3 5 0 9 -6 9 -6 0 -8 5 -5 10 3 6 1 10 -5 10 -7 0 -10 -7 -6 -15z"/>
<path d="M9248 6313 c7 -3 16 -2 19 1 4 3 -2 6 -13 5 -11 0 -14 -3 -6 -6z"/>
<path d="M9248 6283 c7 -3 16 -2 19 1 4 3 -2 6 -13 5 -11 0 -14 -3 -6 -6z"/>
<path d="M9280 6269 c0 -4 15 -9 34 -11 22 -2 32 0 29 8 -4 11 -63 14 -63 3z"/>
<path d="M8958 6253 c7 -3 16 -2 19 1 4 3 -2 6 -13 5 -11 0 -14 -3 -6 -6z"/>
<path d="M8868 6243 c7 -3 16 -2 19 1 4 3 -2 6 -13 5 -11 0 -14 -3 -6 -6z"/>
<path d="M9158 6243 c6 -2 18 -2 25 0 6 3 1 5 -13 5 -14 0 -19 -2 -12 -5z"/>
<path d="M8838 6223 c7 -3 16 -2 19 1 4 3 -2 6 -13 5 -11 0 -14 -3 -6 -6z"/>
<path d="M9095 6220 c-3 -6 1 -7 9 -4 18 7 21 14 7 14 -6 0 -13 -4 -16 -10z"/>
<path d="M8758 6203 c6 -2 18 -2 25 0 6 3 1 5 -13 5 -14 0 -19 -2 -12 -5z"/>
<path d="M8827 6199 c7 -7 15 -10 18 -7 3 3 -2 9 -12 12 -14 6 -15 5 -6 -5z"/>
<path d="M9088 6188 c9 -9 15 -9 24 0 9 9 7 12 -12 12 -19 0 -21 -3 -12 -12z"/>
<path d="M9132 6178 c-5 -5 -34 -9 -64 -9 -30 0 -61 -5 -69 -11 -10 -7 3 -8
44 -5 31 3 71 2 87 -3 18 -5 30 -5 30 1 0 5 -4 9 -10 9 -5 0 -10 4 -10 10 0 6
9 6 25 0 15 -6 26 -6 30 0 4 6 3 10 -2 11 -4 0 -18 2 -30 3 -12 1 -26 -1 -31
-6z"/>
<path d="M8898 6163 c7 -3 16 -2 19 1 4 3 -2 6 -13 5 -11 0 -14 -3 -6 -6z"/>
<path d="M8758 6143 c7 -3 16 -2 19 1 4 3 -2 6 -13 5 -11 0 -14 -3 -6 -6z"/>
<path d="M8810 6130 c-42 -7 -43 -7 -10 -9 19 -1 46 -4 59 -8 17 -4 22 -2 19
7 -5 17 -13 18 -68 10z"/>
<path d="M8918 6113 c7 -3 16 -2 19 1 4 3 -2 6 -13 5 -11 0 -14 -3 -6 -6z"/>
<path d="M8931 6086 c-17 -10 -20 -15 -11 -21 7 -4 15 -2 19 4 4 6 16 9 27 5
11 -3 15 -2 9 3 -5 4 -12 11 -15 15 -3 3 -16 1 -29 -6z"/>
<path d="M8690 6076 c0 -2 11 -6 25 -8 14 -3 25 -1 25 3 0 5 -11 9 -25 9 -14
0 -25 -2 -25 -4z"/>
<path d="M8623 6038 c-2 -5 9 -8 26 -8 16 0 32 3 34 8 3 4 -8 7 -25 7 -16 0
-32 -3 -35 -7z"/>
<path d="M8710 6040 c0 -5 7 -10 16 -10 8 0 12 5 9 10 -3 6 -10 10 -16 10 -5
0 -9 -4 -9 -10z"/>
<path d="M8870 5950 c0 -5 7 -10 15 -10 8 0 15 5 15 10 0 6 -7 10 -15 10 -8 0
-15 -4 -15 -10z"/>
<path d="M9610 6330 c-8 -5 -12 -12 -9 -15 4 -3 12 1 19 10 14 17 11 19 -10 5z"/>
<path d="M9040 4680 c-7 -28 -10 -53 -8 -55 2 -3 10 18 17 46 7 27 11 52 8 55
-3 3 -10 -18 -17 -46z"/>
<path d="M9181 4648 c-1 -9 13 -28 30 -42 27 -23 40 -26 112 -27 45 -1 85 -1
90 0 4 0 7 -3 7 -8 0 -5 -20 -7 -45 -6 -28 2 -43 0 -39 -7 3 -5 18 -7 33 -4
14 3 20 3 13 0 -6 -3 -10 -10 -6 -15 3 -5 -5 -8 -17 -6 -12 1 -23 -3 -26 -8
-2 -6 9 -12 24 -13 53 -4 33 -10 -31 -9 -42 1 -61 4 -51 9 8 5 15 14 15 20 0
7 -5 6 -15 -2 -12 -10 -23 -9 -57 5 -24 9 -49 19 -55 22 -7 3 -13 1 -13 -5 0
-5 21 -15 48 -23 46 -13 46 -14 17 -19 -36 -7 -63 -1 -45 10 7 4 -16 7 -50 6
-61 -2 -63 -1 -76 28 -11 26 -13 27 -14 9 0 -34 45 -80 87 -88 20 -3 160 -8
310 -10 203 -2 275 0 277 8 2 7 10 36 19 65 l15 52 -247 0 c-265 0 -281 3
-301 54 -6 15 -9 17 -9 4z m364 -78 c3 -5 2 -10 -4 -10 -5 0 -13 5 -16 10 -3
6 -2 10 4 10 5 0 13 -4 16 -10z m175 7 c0 -17 -24 -67 -32 -67 -7 0 -7 4 0 13
8 10 2 12 -28 10 -22 -1 -39 1 -39 5 3 20 -2 32 -11 27 -6 -4 -8 -11 -5 -16 4
-5 4 -9 1 -9 -2 0 -13 -3 -23 -7 -15 -5 -14 -2 5 19 18 20 33 25 77 27 30 1
55 0 55 -2z m-195 -35 c-3 -3 -11 0 -18 7 -9 10 -8 11 6 5 10 -3 15 -9 12 -12z
m-435 -32 c0 -5 -5 -10 -11 -10 -5 0 -7 5 -4 10 3 6 8 10 11 10 2 0 4 -4 4
-10z m550 -6 c0 -2 -7 -4 -15 -4 -8 0 -15 4 -15 10 0 5 7 7 15 4 8 -4 15 -8
15 -10z m-480 -8 c10 -13 7 -14 -17 -12 -46 6 -49 8 -23 16 14 4 26 8 26 9 1
1 7 -6 14 -13z m433 7 c-7 -2 -21 -2 -30 0 -10 3 -4 5 12 5 17 0 24 -2 18 -5z
m-348 -21 c-3 -3 -11 0 -18 7 -9 10 -8 11 6 5 10 -3 15 -9 12 -12z m-38 2 c-3
-3 -12 -4 -19 -1 -8 3 -5 6 6 6 11 1 17 -2 13 -5z"/>
<path d="M9892 4543 c-6 -27 -13 -55 -16 -63 -5 -13 4 -14 58 -12 56 3 65 6
70 25 10 38 6 65 -10 71 -24 9 -41 7 -24 -4 12 -7 10 -9 -7 -7 -12 0 -19 5
-17 9 8 13 -11 9 -25 -4 -11 -11 -13 -10 -9 2 3 10 24 17 64 21 l59 6 -66 1
-66 2 -11 -47z m23 -13 c-3 -5 -2 -10 4 -10 5 0 9 -8 8 -18 -1 -17 -37 -27
-37 -10 0 4 8 8 18 8 13 0 14 2 3 9 -12 8 -8 31 5 31 3 0 2 -4 -1 -10z"/>
</g>
</svg>
