<?xml version="1.0" standalone="no"?>
<!DOCTYPE svg PUBLIC "-//W3C//DTD SVG 20010904//EN"
 "http://www.w3.org/TR/2001/REC-SVG-20010904/DTD/svg10.dtd">
<svg version="1.0" xmlns="http://www.w3.org/2000/svg"
 width="1448.000000pt" height="1086.000000pt" viewBox="0 0 1448.000000 1086.000000"
 preserveAspectRatio="xMidYMid meet">

<g transform="translate(0.000000,1086.000000) scale(0.100000,-0.100000)"
fill="#000000" stroke="none">
<path d="M0 5430 l0 -5430 7240 0 7240 0 0 5430 0 5430 -7240 0 -7240 0 0
-5430z m6630 2002 c0 -4 -15 -13 -32 -20 -33 -12 -34 -14 -146 -357 l-112
-345 -1208 -2 -1207 -3 -57 -23 c-31 -13 -79 -43 -106 -67 -91 -82 -93 -89
-301 -845 -55 -201 -125 -455 -155 -565 -57 -204 -69 -285 -41 -285 9 0 16 14
20 38 4 20 13 57 20 82 9 29 12 33 7 10 -4 -19 -7 -71 -7 -116 0 -73 3 -84 29
-118 16 -21 50 -48 75 -60 46 -21 48 -21 1126 -24 594 -1 1086 -5 1094 -7 10
-4 3 -11 -20 -23 -38 -19 -26 16 -155 -455 l-59 -218 -1235 4 c-1213 3 -1237
3 -1325 24 -201 47 -328 123 -439 263 -15 19 -23 25 -17 13 6 -12 7 -24 2 -27
-15 -9 -81 135 -97 214 -22 104 -14 254 21 385 14 55 50 186 80 290 29 105 70
251 90 325 20 74 56 203 80 285 24 83 80 283 125 445 104 374 123 436 171 538
109 234 304 433 521 531 109 49 252 90 361 105 83 11 368 14 1500 15 768 1
1397 -3 1397 -7z m4325 -2 c318 -30 553 -149 701 -356 30 -43 42 -67 37 -80
-4 -12 -3 -15 5 -10 8 5 10 1 5 -10 -5 -13 -3 -15 7 -9 9 5 11 4 6 -4 -10 -15
13 -73 25 -65 9 5 21 -20 33 -71 5 -23 4 -27 -4 -15 -9 12 -10 8 -6 -15 4 -16
8 -79 10 -140 3 -60 2 -94 0 -75 -2 19 -9 73 -15 120 -45 366 -298 610 -700
675 -81 13 -301 15 -1624 15 l-1530 1 -58 -213 c-31 -117 -68 -253 -82 -303
-13 -49 -58 -214 -99 -365 -41 -151 -93 -345 -116 -430 -23 -85 -56 -209 -75
-275 -19 -66 -50 -182 -69 -257 -20 -76 -62 -236 -95 -355 -32 -120 -114 -427
-182 -683 -100 -380 -127 -470 -148 -492 -29 -33 -35 -31 -22 6 6 14 30 101
55 194 66 252 162 615 192 722 24 91 53 197 180 675 31 116 89 332 129 480 40
149 89 333 110 410 20 77 56 210 79 295 24 85 72 264 107 397 l64 243 1485 0
c932 0 1526 -4 1595 -10z m-4346 -69 c-16 -54 -24 -46 -9 9 6 23 14 40 16 37
3 -3 0 -24 -7 -46z m-48 -142 c-5 -13 -10 -19 -10 -12 -1 15 10 45 15 40 3 -2
0 -15 -5 -28z m-60 -180 c-5 -13 -10 -19 -10 -12 -1 15 10 45 15 40 3 -2 0
-15 -5 -28z m-20 -60 c-5 -13 -10 -19 -10 -12 -1 15 10 45 15 40 3 -2 0 -15
-5 -28z m-32 -103 c-6 -21 -12 -36 -14 -34 -3 2 0 21 6 42 6 21 12 36 14 34 3
-2 0 -21 -6 -42z m4352 -243 c13 -16 12 -17 -3 -4 -17 13 -22 21 -14 21 2 0
10 -8 17 -17z m966 -130 c-3 -10 -5 -4 -5 12 0 17 2 24 5 18 2 -7 2 -21 0 -30z
m-933 -256 c-20 -73 -49 -160 -65 -194 -32 -73 -104 -149 -169 -181 -106 -51
-103 -51 -1049 -56 -486 -3 -885 -6 -886 -8 -3 -3 69 -94 489 -618 126 -157
233 -292 240 -301 34 -47 -63 69 -182 216 -115 142 -314 388 -531 656 -29 36
-62 64 -91 77 l-45 20 936 1 c552 1 957 5 987 11 145 27 241 118 292 273 6 21
14 36 17 34 4 -4 -7 -54 -23 -105 -5 -15 -4 -15 5 -2 27 37 100 316 103 392 2
48 2 47 5 -15 3 -55 -3 -93 -33 -200z m-7167 81 c-3 -8 -6 -5 -6 6 -1 11 2 17
5 13 3 -3 4 -12 1 -19z m-58 -217 c-28 -105 -54 -189 -56 -187 -3 2 18 87 46
189 28 102 51 189 51 193 0 4 3 5 6 1 3 -3 -18 -91 -47 -196z m-62 -223 c-3
-8 -6 -5 -6 6 -1 11 2 17 5 13 3 -3 4 -12 1 -19z m-77 -285 c-39 -142 -73
-260 -76 -262 -10 -10 -1 28 55 225 33 115 65 231 72 257 6 26 14 46 16 43 3
-2 -27 -121 -67 -263z m4767 35 c-3 -8 -6 -5 -6 6 -1 11 2 17 5 13 3 -3 4 -12
1 -19z m-4858 -362 c-6 -26 -13 -45 -16 -43 -2 3 1 26 8 51 6 26 13 45 16 43
2 -3 -1 -26 -8 -51z m6934 -135 c46 -61 81 -91 48 -41 -43 63 77 -74 183 -210
33 -41 73 -90 89 -107 17 -18 28 -35 25 -38 -3 -3 -42 40 -87 95 -45 55 -84
100 -87 100 -3 0 33 -46 80 -102 46 -57 89 -102 95 -101 5 1 29 -21 53 -50 23
-28 64 -77 90 -106 50 -57 64 -88 26 -55 l-23 19 19 -22 c10 -13 22 -20 26
-18 5 3 72 -73 151 -168 79 -94 163 -196 188 -226 25 -30 41 -52 34 -50 -7 2
-25 20 -40 40 -15 20 -73 90 -128 155 -55 66 -112 135 -127 154 -15 19 -28 32
-28 27 0 -19 329 -409 339 -402 5 2 19 -7 32 -21 l24 -26 -47 23 c-42 20 -93
78 -400 453 -194 237 -407 496 -473 576 -164 199 -156 187 -125 167 14 -9 42
-38 63 -66z m-6974 -5 c-6 -26 -13 -45 -16 -43 -2 3 1 26 8 51 6 26 13 45 16
43 2 -3 -1 -26 -8 -51z m6106 -306 c10 -11 16 -20 13 -20 -3 0 -13 9 -23 20
-10 11 -16 20 -13 20 3 0 13 -9 23 -20z m36 -47 c13 -16 12 -17 -3 -4 -10 7
-18 15 -18 17 0 8 8 3 21 -13z m-2751 -81 c0 -2 -11 -13 -24 -25 -20 -18 -41
-82 -112 -334 l-87 -313 -306 0 c-299 0 -305 0 -328 -22 -13 -12 -23 -16 -23
-9 0 6 33 130 74 274 41 144 84 299 97 344 l22 82 136 3 c181 4 551 4 551 0z
m5760 -20 c0 -2 -11 -13 -24 -25 -18 -17 -40 -80 -96 -277 -70 -246 -97 -331
-85 -265 3 17 7 39 9 50 2 11 13 49 24 85 48 154 113 382 109 386 -6 6 -78 7
-308 6 l-246 -2 -37 -131 c-20 -73 -35 -133 -33 -136 2 -2 10 16 17 41 l12 44
72 4 c39 2 89 0 111 -3 39 -6 38 -7 -15 -9 -30 -1 -66 -6 -80 -10 -20 -6 -14
-8 27 -9 28 -1 55 -6 59 -13 5 -8 -10 -10 -57 -5 -69 6 -122 -8 -58 -16 l34
-4 -37 -1 c-52 -3 -48 -19 5 -21 23 -1 71 -5 107 -10 59 -7 54 -8 -59 -9 -68
-1 -126 -4 -129 -7 -3 -3 7 -5 22 -5 16 0 25 -4 21 -10 -3 -5 -19 -10 -35 -10
-24 0 -27 3 -23 23 3 12 4 20 1 17 -3 -3 -24 -68 -47 -145 -23 -77 -44 -146
-46 -152 -3 -10 57 -13 280 -13 261 0 284 1 289 18 3 10 4 6 3 -8 l-2 -25
-301 -5 c-247 -4 -304 -8 -319 -20 -17 -13 -18 -13 -13 0 3 8 44 155 92 325
48 171 91 319 95 330 8 19 18 20 335 20 179 0 326 -1 326 -3z m-6873 -34 c-3
-8 -6 -5 -6 6 -1 11 2 17 5 13 3 -3 4 -12 1 -19z m6470 -24 c-6 -6 -45 -10
-127 -14 l-25 -1 24 -10 c13 -5 33 -7 45 -4 17 5 18 4 6 -5 -12 -9 -8 -10 20
-6 19 3 42 1 50 -4 10 -6 -23 -9 -97 -7 -115 2 -121 4 -107 41 5 13 25 16 112
16 58 0 102 -3 99 -6z m251 -19 c3 -3 -12 -5 -34 -6 -21 0 -76 -1 -121 -2 -45
-1 -79 1 -75 5 13 13 217 16 230 3z m-6741 -27 c-3 -8 -6 -5 -6 6 -1 11 2 17
5 13 3 -3 4 -12 1 -19z m-33 -127 c-15 -56 -29 -99 -31 -97 -3 2 8 50 23 105
15 56 29 100 31 97 2 -2 -8 -49 -23 -105z m6496 94 c14 -1 36 -3 50 -4 18 -1
21 -4 11 -10 -7 -5 -21 -6 -31 -4 -10 3 -21 0 -24 -6 -4 -6 -32 -11 -63 -11
-30 0 -69 -6 -86 -14 -40 -18 -77 -26 -77 -18 0 4 5 24 11 45 l10 38 87 -7
c48 -4 98 -8 112 -9z m-2355 -35 c10 -11 16 -20 13 -20 -3 0 -13 9 -23 20 -10
11 -16 20 -13 20 3 0 13 -9 23 -20z m2375 -19 c0 -14 -24 -19 -56 -13 l-29 6
35 7 c19 3 38 7 43 8 4 0 7 -3 7 -8z m-2335 -31 c10 -11 16 -20 13 -20 -3 0
-13 9 -23 20 -10 11 -16 20 -13 20 3 0 13 -9 23 -20z m2348 -7 c-7 -2 -19 -2
-25 0 -7 3 -2 5 12 5 14 0 19 -2 13 -5z m34 -30 c-20 -2 -52 -2 -70 0 -17 2 0
4 38 4 39 0 53 -2 32 -4z m130 1 c-3 -3 -12 -4 -19 -1 -8 3 -5 6 6 6 11 1 17
-2 13 -5z m-2466 -21 c13 -16 12 -17 -3 -4 -10 7 -18 15 -18 17 0 8 8 3 21
-13z m2332 -40 c-7 -2 -19 -2 -25 0 -7 3 -2 5 12 5 14 0 19 -2 13 -5z m87 -9
c0 -2 -9 -4 -21 -4 -11 0 -18 4 -14 10 5 8 35 3 35 -6z m30 -4 c0 -5 -5 -10
-11 -10 -5 0 -7 5 -4 10 3 6 8 10 11 10 2 0 4 -4 4 -10z m-6721 -64 c-6 -26
-13 -45 -16 -43 -2 3 1 26 8 51 6 26 13 45 16 43 2 -3 -1 -26 -8 -51z m6518
38 c-3 -3 -12 -4 -19 -1 -8 3 -5 6 6 6 11 1 17 -2 13 -5z m-149 -31 c-16 -2
-40 -2 -55 0 -16 2 -3 4 27 4 30 0 43 -2 28 -4z m-28 -27 c0 -2 -18 -6 -40 -8
-22 -2 -40 0 -40 4 0 5 18 8 40 8 22 0 40 -2 40 -4z m-17 -33 c-13 -2 -35 -2
-50 0 -16 2 -5 4 22 4 28 0 40 -2 28 -4z m-6349 -42 c-4 -17 -9 -30 -11 -27
-3 2 -2 19 2 36 9 41 17 33 9 -9z m6293 13 c-3 -3 -12 -4 -19 -1 -8 3 -5 6 6
6 11 1 17 -2 13 -5z m223 -24 c13 -9 13 -10 0 -10 -8 0 -22 5 -30 10 -13 9
-13 10 0 10 8 0 22 -5 30 -10z m-197 -7 c-13 -2 -33 -2 -45 0 -13 2 -3 4 22 4
25 0 35 -2 23 -4z m146 3 c-2 -2 -24 -6 -48 -9 -29 -4 -40 -2 -30 4 13 8 88
14 78 5z m98 -2 c-3 -3 -12 -4 -19 -1 -8 3 -5 6 6 6 11 1 17 -2 13 -5z m-6580
-46 c-3 -8 -6 -5 -6 6 -1 11 2 17 5 13 3 -3 4 -12 1 -19z m6343 13 c0 -6 -17
-12 -37 -14 -21 -3 6 -4 61 -3 54 1 90 -1 80 -5 -11 -4 -58 -8 -106 -8 -81 -1
-86 0 -81 19 4 16 14 20 44 20 22 0 39 -4 39 -9z m77 -7 c-3 -3 -12 -4 -19 -1
-8 3 -5 6 6 6 11 1 17 -2 13 -5z"/>
<path d="M3800 7380 c-27 -6 -29 -8 -10 -8 14 -1 43 3 65 7 33 7 35 9 10 9
-16 -1 -46 -4 -65 -8z"/>
<path d="M4048 7383 c12 -2 30 -2 40 0 9 3 -1 5 -23 4 -22 0 -30 -2 -17 -4z"/>
<path d="M3598 7343 c7 -3 16 -2 19 1 4 3 -2 6 -13 5 -11 0 -14 -3 -6 -6z"/>
<path d="M3535 7330 c-13 -5 -14 -9 -5 -9 8 0 24 4 35 9 13 5 14 9 5 9 -8 0
-24 -4 -35 -9z"/>
<path d="M3748 7303 c6 -2 18 -2 25 0 6 3 1 5 -13 5 -14 0 -19 -2 -12 -5z"/>
<path d="M3415 7285 c-25 -12 -26 -14 -5 -9 28 7 60 23 45 23 -5 0 -23 -6 -40
-14z"/>
<path d="M3234 7186 c-113 -76 -250 -230 -309 -347 -29 -57 -29 -56 -11 -56 8
0 12 6 9 14 -5 12 27 14 213 9 121 -3 248 -8 284 -11 58 -4 60 -3 25 6 -22 5
-115 12 -208 16 -92 3 -165 8 -162 11 5 5 96 5 295 -3 76 -2 113 -1 95 4 -16
5 -55 9 -85 10 -34 1 -50 4 -42 10 11 7 10 10 -3 15 -25 9 -45 7 -45 -5 0 -5
5 -7 10 -4 6 3 10 1 10 -5 0 -6 -8 -9 -17 -6 -10 3 -38 8 -61 11 -33 5 -42 3
-36 -6 4 -7 3 -10 -4 -5 -5 3 -65 6 -131 7 l-121 0 17 26 c15 23 21 25 87 22
134 -5 366 1 366 9 0 5 -57 7 -127 5 -86 -2 -123 0 -113 7 13 8 12 10 -2 10
-10 0 -18 -4 -18 -10 0 -6 -36 -10 -87 -10 -47 0 -83 3 -79 7 4 4 41 6 82 5
45 -2 74 1 74 7 0 5 -10 12 -22 14 -13 2 10 5 51 6 113 2 78 12 -43 12 -61 0
-106 4 -106 9 0 6 30 10 67 10 74 0 80 6 14 14 -23 2 -45 7 -48 9 -13 13 108
124 217 199 14 9 23 17 20 17 -3 1 -28 -14 -56 -33z m-191 -243 c-7 -2 -21 -2
-30 0 -10 3 -4 5 12 5 17 0 24 -2 18 -5z m3 -120 c-1 -1 -12 0 -25 4 -15 4
-19 8 -10 13 10 7 42 -10 35 -17z"/>
<path d="M3388 7183 c12 -2 30 -2 40 0 9 3 -1 5 -23 4 -22 0 -30 -2 -17 -4z"/>
<path d="M3258 7123 c18 -2 45 -2 60 0 15 2 0 4 -33 4 -33 0 -45 -2 -27 -4z"/>
<path d="M3345 7073 c11 -3 22 -9 25 -13 3 -4 11 -2 18 6 11 12 7 14 -25 13
-22 -1 -30 -3 -18 -6z"/>
<path d="M3153 7063 c15 -2 37 -2 50 0 12 2 0 4 -28 4 -27 0 -38 -2 -22 -4z"/>
<path d="M3313 7053 c9 -2 23 -2 30 0 6 3 -1 5 -18 5 -16 0 -22 -2 -12 -5z"/>
<path d="M3758 7053 c7 -3 16 -2 19 1 4 3 -2 6 -13 5 -11 0 -14 -3 -6 -6z"/>
<path d="M3098 7033 c7 -3 16 -2 19 1 4 3 -2 6 -13 5 -11 0 -14 -3 -6 -6z"/>
<path d="M4073 7013 c9 -2 25 -2 35 0 9 3 1 5 -18 5 -19 0 -27 -2 -17 -5z"/>
<path d="M3165 6999 c48 -9 181 -10 250 -1 30 4 -17 7 -120 8 -107 1 -155 -2
-130 -7z"/>
<path d="M3497 7003 c18 -2 50 -2 70 0 21 2 7 4 -32 4 -38 0 -55 -2 -38 -4z"/>
<path d="M3273 6973 c9 -2 23 -2 30 0 6 3 -1 5 -18 5 -16 0 -22 -2 -12 -5z"/>
<path d="M3398 6973 c45 -2 119 -2 165 0 45 1 8 3 -83 3 -91 0 -128 -2 -82 -3z"/>
<path d="M3244 6939 c-4 -8 8 -9 42 -4 64 8 69 15 11 15 -25 0 -49 -5 -53 -11z"/>
<path d="M3403 6943 c20 -2 54 -2 75 0 20 2 3 4 -38 4 -41 0 -58 -2 -37 -4z"/>
<path d="M3190 6930 c0 -13 11 -13 30 0 12 8 11 10 -7 10 -13 0 -23 -4 -23
-10z"/>
<path d="M3648 6913 c7 -3 16 -2 19 1 4 3 -2 6 -13 5 -11 0 -14 -3 -6 -6z"/>
<path d="M3101 6871 c-18 -12 55 -12 83 -1 16 7 10 9 -24 9 -25 0 -51 -3 -59
-8z"/>
<path d="M3373 6853 c9 -2 23 -2 30 0 6 3 -1 5 -18 5 -16 0 -22 -2 -12 -5z"/>
<path d="M3803 6833 c15 -2 37 -2 50 0 12 2 0 4 -28 4 -27 0 -38 -2 -22 -4z"/>
<path d="M3908 6833 c12 -2 32 -2 45 0 12 2 2 4 -23 4 -25 0 -35 -2 -22 -4z"/>
<path d="M3748 6803 c23 -2 59 -2 80 0 20 2 1 4 -43 4 -44 0 -61 -2 -37 -4z"/>
<path d="M2955 6790 c-4 -6 12 -10 42 -9 36 0 43 3 28 9 -28 12 -63 12 -70 0z"/>
<path d="M3089 6783 c-1 -5 -1 -16 0 -25 1 -10 -3 -18 -9 -18 -6 0 -8 5 -5 10
3 6 -2 10 -12 10 -10 0 -36 3 -57 7 -28 4 -37 3 -32 -5 5 -9 -7 -12 -39 -12
-34 0 -44 3 -40 13 4 6 0 3 -9 -7 -22 -27 -84 -220 -166 -516 -39 -140 -80
-284 -91 -320 -11 -36 -52 -180 -91 -320 -228 -823 -239 -871 -219 -1012 26
-183 106 -314 254 -411 79 -52 162 -85 282 -110 99 -21 111 -21 1310 -18 666
2 1211 4 1211 4 1 1 4 11 8 22 6 19 3 21 -31 16 -33 -5 -35 -6 -10 -9 15 -2
27 -8 27 -13 0 -7 -149 -9 -420 -8 -230 1 -417 5 -415 10 3 4 86 5 184 2 124
-3 181 -2 185 6 5 7 -5 11 -28 11 -19 0 -42 3 -52 7 -12 4 -15 3 -10 -5 5 -9
-6 -12 -39 -12 -28 0 -44 4 -40 10 4 7 -92 10 -281 10 -158 0 -285 2 -283 5 3
2 124 5 270 5 151 1 271 5 279 11 10 6 -9 7 -56 3 -47 -4 -79 -2 -90 5 -16 10
-15 10 8 5 16 -3 35 -4 43 0 17 6 300 18 392 16 33 -1 64 3 67 8 3 5 -107 9
-254 10 -158 0 -267 5 -277 11 -18 10 183 18 375 13 51 -1 82 2 82 9 0 7 -76
9 -237 7 -131 -2 -230 -2 -220 0 9 2 17 7 17 11 0 4 37 7 83 7 158 -1 262 4
249 12 -6 5 -51 8 -100 7 -102 -2 -122 4 -67 22 l40 13 -48 -5 c-35 -3 -49 -1
-53 9 -7 18 -44 29 -109 32 -80 4 -76 7 20 14 50 3 94 2 100 -2 13 -11 37 -10
30 2 -6 10 11 12 153 15 45 1 85 5 89 8 5 6 -83 8 -364 9 -13 0 -23 3 -23 7 0
4 84 8 187 10 103 1 189 4 192 6 2 3 -83 5 -190 5 -112 0 -200 5 -209 10 -11
7 4 10 50 8 91 -2 223 4 181 9 -26 3 -31 7 -20 14 13 8 -81 15 -140 10 -13 -1
-31 1 -40 5 -13 5 -11 8 9 14 20 6 14 8 -25 9 -27 1 -57 6 -65 12 -11 8 -7 9
20 6 19 -2 47 -1 62 4 16 4 30 3 33 -2 4 -5 25 -9 48 -9 31 0 38 -3 27 -10
-10 -7 21 -9 95 -8 l110 2 -95 5 c-89 6 -92 7 -46 14 27 4 63 8 80 8 17 1 -27
7 -99 13 -71 6 -131 8 -133 5 -2 -4 -16 -4 -32 1 -16 4 -102 9 -191 10 -90 0
-165 3 -168 5 -2 3 34 5 80 5 137 1 290 8 297 14 3 4 -3 13 -14 21 -20 15 -60
17 -329 15 -76 -1 -137 2 -134 5 4 3 112 8 240 11 129 4 236 8 238 10 2 2 -58
4 -134 4 -76 0 -136 2 -134 5 3 2 55 5 117 6 62 1 112 6 112 10 0 5 -120 9
-267 9 -253 1 -330 4 -341 15 -3 2 217 5 489 6 272 1 521 5 554 9 33 4 -285 8
-707 9 -524 1 -784 5 -820 12 -145 31 -216 106 -226 239 -4 67 3 101 74 345
13 44 53 190 89 325 59 220 133 489 184 670 34 118 34 119 9 112 -12 -3 -17
-7 -10 -10 14 -4 17 -42 3 -42 -5 0 -7 -9 -4 -21 5 -17 2 -19 -21 -13 -14 3
-57 7 -96 8 -38 1 -72 4 -75 8 -4 3 0 6 7 5 7 0 29 1 48 2 27 1 31 4 20 11
-11 7 -6 10 20 9 27 0 31 -2 15 -8 -17 -7 -14 -9 15 -13 19 -3 39 -2 45 3 5 6
4 9 -4 9 -7 0 -10 4 -7 9 9 14 -31 20 -113 16 -42 -2 -67 0 -57 4 13 5 16 10
9 14 -6 4 -18 0 -26 -8 -9 -8 -19 -15 -24 -15 -4 0 4 11 19 25 23 21 37 25 90
26 35 0 81 4 103 8 l40 9 -45 2 c-25 2 -73 2 -107 1 -35 -1 -70 2 -79 7 -13 7
-8 9 21 8 21 0 40 4 42 11 3 7 -3 10 -15 6 -11 -2 -23 1 -28 8 -5 8 -2 11 8 6
9 -3 21 0 27 6 6 6 11 7 11 1 0 -5 9 -10 19 -10 11 0 18 4 15 8 -2 4 6 6 18 6
13 -1 37 -1 53 1 26 2 28 3 10 11 -14 6 -5 9 36 9 31 1 58 -2 62 -5 11 -12 -5
-34 -27 -35 -20 0 -20 -1 -1 -8 17 -7 24 0 52 53 38 76 136 170 193 187 22 7
38 14 36 17 -3 2 -22 -2 -43 -9 -21 -7 -41 -12 -45 -11 -5 1 -8 -1 -8 -5 0 -5
-70 -9 -155 -9 -124 -2 -154 1 -145 11 8 9 4 11 -15 7 -14 -2 -25 -9 -25 -14
0 -7 -4 -7 -12 -1 -14 11 -88 5 -88 -7 0 -4 12 -5 26 -2 16 3 30 -1 35 -9 6
-10 9 -10 9 -2 0 7 7 10 15 6 9 -3 14 -7 11 -10 -9 -9 -217 -13 -212 -4 4 5
-2 12 -11 14 -17 4 -17 5 0 6 9 0 17 6 17 11 0 13 -16 13 -42 -1 -15 -8 -23
-8 -32 1 -6 6 -6 11 -1 10 29 -6 38 0 20 14 -16 12 -11 14 51 20 92 10 129 26
54 24 -30 -1 -81 2 -113 6 -47 7 -55 11 -46 22 9 11 6 14 -15 14 -14 0 -27 -3
-27 -7z m57 -65 c9 -10 -28 -16 -86 -13 -30 1 -83 3 -117 3 -36 1 -63 6 -63
12 0 11 255 9 266 -2z m-221 -28 c15 -7 10 -9 -23 -9 -26 -1 -41 3 -37 9 7 12
32 12 60 0z m145 -24 c22 3 28 0 24 -11 -4 -9 0 -15 10 -15 9 0 16 5 16 10 0
6 17 10 38 9 37 0 36 0 -19 -19 -34 -11 -91 -19 -150 -20 -137 -3 -155 -2
-142 11 10 10 166 14 182 5 4 -3 13 -1 20 4 10 6 8 9 -8 15 -12 4 -18 11 -14
18 4 7 8 8 10 0 2 -5 17 -9 33 -7z m687 -19 c-22 -17 -44 -23 -95 -25 -85 -4
-94 -12 -14 -12 l61 0 -27 -45 -27 -44 -179 -1 c-99 0 -177 2 -175 4 3 4 113
13 221 19 13 1 14 5 6 14 -8 10 -6 13 8 14 165 5 195 18 48 21 -238 5 -230 4
-237 21 -6 15 39 17 62 2 7 -4 16 -3 20 3 4 6 22 7 48 2 24 -4 40 -3 37 1 -3
5 19 9 48 9 29 0 60 5 68 10 10 7 -14 9 -79 6 -53 -2 -90 -1 -85 4 8 8 60 12
254 18 l65 2 -28 -23z m-547 -7 c0 -5 -5 -10 -11 -10 -5 0 -7 5 -4 10 3 6 8
10 11 10 2 0 4 -4 4 -10z m109 -41 c-8 -5 -63 -8 -124 -7 -65 0 -102 4 -90 9
28 11 232 9 214 -2z m191 -39 c0 -5 -12 -10 -27 -9 l-28 1 25 8 c14 4 26 8 28
9 1 1 2 -3 2 -9z m-542 -7 c-26 -2 -71 -2 -100 0 -29 2 -8 3 47 3 55 0 79 -1
53 -3z m477 -3 c-3 -5 -12 -7 -20 -3 -21 7 -19 13 6 13 11 0 18 -4 14 -10z
m-562 -27 c-7 -2 -19 -2 -25 0 -7 3 -2 5 12 5 14 0 19 -2 13 -5z m44 1 c-3 -3
-12 -4 -19 -1 -8 3 -5 6 6 6 11 1 17 -2 13 -5z m71 -1 c-10 -2 -28 -2 -40 0
-13 2 -5 4 17 4 22 1 32 -1 23 -4z m105 0 c-7 -2 -21 -2 -30 0 -10 3 -4 5 12
5 17 0 24 -2 18 -5z m187 3 c0 -9 -30 -14 -35 -6 -4 6 3 10 14 10 12 0 21 -2
21 -4z m-350 -56 c-34 -11 -140 -12 -140 -2 0 5 37 9 83 9 54 1 73 -2 57 -7z
m345 -20 c-3 -5 -11 -10 -16 -10 -6 0 -7 5 -4 10 3 6 11 10 16 10 6 0 7 -4 4
-10z m-158 -16 c-3 -3 -12 -4 -19 -1 -8 3 -5 6 6 6 11 1 17 -2 13 -5z m56 -1
c-7 -2 -21 -2 -30 0 -10 3 -4 5 12 5 17 0 24 -2 18 -5z m162 -43 c-10 -11 -20
-18 -23 -15 -7 6 18 35 31 35 5 0 2 -9 -8 -20z m-529 -39 c-3 -5 -17 -8 -31
-8 -13 0 -22 3 -19 8 3 5 16 9 30 9 14 0 23 -4 20 -9z m-41 -80 c3 -6 -3 -9
-14 -8 -11 0 -17 5 -15 9 7 11 22 10 29 -1z m670 -2 c33 1 75 3 93 5 19 1 31
-2 29 -8 -2 -6 -37 -12 -78 -14 -54 -2 -70 -6 -59 -13 11 -8 7 -9 -15 -4 -64
14 -202 25 -247 20 -26 -3 -50 -1 -53 5 -7 11 144 19 220 12 28 -2 77 -4 110
-3z m-657 -36 c-10 -2 -26 -2 -35 0 -10 3 -2 5 17 5 19 0 27 -2 18 -5z m262
-3 c0 -5 -4 -10 -10 -10 -5 0 -10 5 -10 10 0 6 5 10 10 10 6 0 10 -4 10 -10z
m448 -7 c-10 -2 -26 -2 -35 0 -10 3 -2 5 17 5 19 0 27 -2 18 -5z m-178 -23 c8
-5 11 -10 5 -10 -5 0 -17 5 -25 10 -8 5 -10 10 -5 10 6 0 17 -5 25 -10z m130
1 c0 -5 -11 -8 -24 -7 -13 0 -22 4 -19 9 6 10 43 9 43 -2z m100 -1 c0 -15 -75
-40 -120 -40 -61 0 -67 15 -8 19 24 1 46 8 50 14 7 13 78 18 78 7z m-281 -66
c2 -2 -27 -4 -65 -3 -48 0 -63 3 -49 9 18 8 104 3 114 -6z m-499 2 c0 -2 -13
-6 -30 -8 -16 -3 -30 -1 -30 4 0 4 14 8 30 8 17 0 30 -2 30 -4z m353 -3 c-7
-2 -21 -2 -30 0 -10 3 -4 5 12 5 17 0 24 -2 18 -5z m397 -12 c-12 -23 -25 -27
-35 -11 -3 6 -21 10 -40 10 -63 0 -45 17 21 19 63 2 65 1 54 -18z m-110 -93
c0 -4 -4 -8 -9 -8 -6 0 -12 4 -15 8 -3 5 1 9 9 9 8 0 15 -4 15 -9z m75 2 c-3
-5 -21 -10 -38 -9 -31 1 -31 1 -7 9 36 11 52 11 45 0z m-5 -66 c0 -8 -11 -14
-27 -15 -25 0 -26 -1 -8 -9 21 -9 19 -10 -28 -16 -17 -2 -25 1 -21 8 4 7 -7 8
-35 3 -51 -8 -57 11 -6 21 19 3 33 9 31 13 -2 3 18 7 45 7 36 1 49 -2 49 -12z
m-267 -41 c-7 -2 -19 -2 -25 0 -7 3 -2 5 12 5 14 0 19 -2 13 -5z m250 -24 c-6
-6 -53 -13 -105 -15 -89 -3 -90 -3 -29 6 34 5 68 11 75 14 6 2 24 5 41 5 21 1
26 -2 18 -10z m-220 -16 c-7 -2 -21 -2 -30 0 -10 3 -4 5 12 5 17 0 24 -2 18
-5z m-260 -130 c-7 -2 -19 -2 -25 0 -7 3 -2 5 12 5 14 0 19 -2 13 -5z m202 -3
c3 -5 1 -10 -4 -10 -6 0 -11 5 -11 10 0 6 2 10 4 10 3 0 8 -4 11 -10z m73 -7
c-10 -2 -28 -2 -40 0 -13 2 -5 4 17 4 22 1 32 -1 23 -4z m45 -170 c-7 -2 -21
-2 -30 0 -10 3 -4 5 12 5 17 0 24 -2 18 -5z m44 1 c-3 -3 -12 -4 -19 -1 -8 3
-5 6 6 6 11 1 17 -2 13 -5z m-60 -70 c-3 -3 -12 -4 -19 -1 -8 3 -5 6 6 6 11 1
17 -2 13 -5z m1096 -941 c-13 -2 -35 -2 -50 0 -16 2 -5 4 22 4 28 0 40 -2 28
-4z m145 0 c-21 -2 -55 -2 -75 0 -21 2 -4 4 37 4 41 0 58 -2 38 -4z m-689 -74
c-17 -11 -39 -12 -39 -1 0 4 12 8 27 9 19 1 22 -1 12 -8z m256 6 c-24 -8 -125
-11 -125 -3 0 4 30 8 68 7 37 0 63 -2 57 -4z m58 -2 c-7 -2 -21 -2 -30 0 -10
3 -4 5 12 5 17 0 24 -2 18 -5z m321 -14 c8 -9 7 -10 -2 -5 -7 4 -57 8 -112 8
-55 0 -103 5 -106 10 -9 15 207 1 220 -13z m-151 -26 c-13 -2 -33 -2 -45 0
-13 2 -3 4 22 4 25 0 35 -2 23 -4z m83 -11 c-16 -2 -32 0 -37 5 -5 5 7 7 29 4
34 -5 35 -6 8 -9z m154 8 c0 -5 -6 -10 -14 -10 -8 0 -18 5 -21 10 -3 6 3 10
14 10 12 0 21 -4 21 -10z m-257 -27 c-7 -2 -21 -2 -30 0 -10 3 -4 5 12 5 17 0
24 -2 18 -5z m310 0 c-35 -2 -91 -2 -125 0 -35 2 -7 3 62 3 69 0 97 -1 63 -3z
m-586 -59 c-3 -3 -12 -4 -19 -1 -8 3 -5 6 6 6 11 1 17 -2 13 -5z m340 0 c-3
-3 -12 -4 -19 -1 -8 3 -5 6 6 6 11 1 17 -2 13 -5z m71 -41 c-21 -2 -55 -2 -75
0 -21 2 -4 4 37 4 41 0 58 -2 38 -4z m-351 -39 c-3 -3 -12 -4 -19 -1 -8 3 -5
6 6 6 11 1 17 -2 13 -5z m470 0 c-3 -3 -12 -4 -19 -1 -8 3 -5 6 6 6 11 1 17
-2 13 -5z m-284 -31 c-13 -2 -35 -2 -50 0 -16 2 -5 4 22 4 28 0 40 -2 28 -4z
m417 -9 c0 -2 -9 -4 -21 -4 -11 0 -18 4 -14 10 5 8 35 3 35 -6z m-263 0 c-3
-3 -12 -4 -19 -1 -8 3 -5 6 6 6 11 1 17 -2 13 -5z m200 0 c-3 -3 -12 -4 -19
-1 -8 3 -5 6 6 6 11 1 17 -2 13 -5z m-297 -24 c11 -8 7 -9 -15 -4 -37 8 -45
14 -19 14 10 0 26 -5 34 -10z m213 3 c-7 -2 -21 -2 -30 0 -10 3 -4 5 12 5 17
0 24 -2 18 -5z m-90 -10 c-13 -2 -35 -2 -50 0 -16 2 -5 4 22 4 28 0 40 -2 28
-4z m-86 -29 c-3 -3 -12 -4 -19 -1 -8 3 -5 6 6 6 11 1 17 -2 13 -5z m81 -1
c-10 -2 -28 -2 -40 0 -13 2 -5 4 17 4 22 1 32 -1 23 -4z m-265 -20 c-7 -2 -19
-2 -25 0 -7 3 -2 5 12 5 14 0 19 -2 13 -5z m110 0 c-7 -2 -19 -2 -25 0 -7 3
-2 5 12 5 14 0 19 -2 13 -5z m272 -3 c4 -6 -5 -10 -20 -10 -15 0 -24 4 -20 10
3 6 12 10 20 10 8 0 17 -4 20 -10z m-682 -7 c-7 -2 -21 -2 -30 0 -10 3 -4 5
12 5 17 0 24 -2 18 -5z m540 0 c-13 -2 -33 -2 -45 0 -13 2 -3 4 22 4 25 0 35
-2 23 -4z m190 0 c-7 -2 -19 -2 -25 0 -7 3 -2 5 12 5 14 0 19 -2 13 -5z m-986
-19 c-3 -3 -12 -4 -19 -1 -8 3 -5 6 6 6 11 1 17 -2 13 -5z m481 -1 c-10 -2
-26 -2 -35 0 -10 3 -2 5 17 5 19 0 27 -2 18 -5z m85 0 c-7 -2 -19 -2 -25 0 -7
3 -2 5 12 5 14 0 19 -2 13 -5z m234 1 c-3 -3 -12 -4 -19 -1 -8 3 -5 6 6 6 11
1 17 -2 13 -5z m-310 -31 c-20 -2 -52 -2 -70 0 -17 2 0 4 38 4 39 0 53 -2 32
-4z m266 -40 c-7 -2 -19 -2 -25 0 -7 3 -2 5 12 5 14 0 19 -2 13 -5z m115 0
c-15 -2 -42 -2 -60 0 -18 2 -6 4 27 4 33 0 48 -2 33 -4z"/>
<path d="M3730 6649 c0 -5 5 -7 10 -4 6 3 10 8 10 11 0 2 -4 4 -10 4 -5 0 -10
-5 -10 -11z"/>
<path d="M3658 6643 c7 -3 16 -2 19 1 4 3 -2 6 -13 5 -11 0 -14 -3 -6 -6z"/>
<path d="M3185 6770 c-8 -13 85 -13 105 0 11 7 -1 10 -42 10 -31 0 -60 -4 -63
-10z"/>
<path d="M3338 6773 c7 -3 16 -2 19 1 4 3 -2 6 -13 5 -11 0 -14 -3 -6 -6z"/>
<path d="M3513 6773 c15 -2 37 -2 50 0 12 2 0 4 -28 4 -27 0 -38 -2 -22 -4z"/>
<path d="M3598 6773 c7 -3 16 -2 19 1 4 3 -2 6 -13 5 -11 0 -14 -3 -6 -6z"/>
<path d="M3638 6773 c7 -3 16 -2 19 1 4 3 -2 6 -13 5 -11 0 -14 -3 -6 -6z"/>
<path d="M3943 6773 c9 -2 23 -2 30 0 6 3 -1 5 -18 5 -16 0 -22 -2 -12 -5z"/>
<path d="M4193 6773 c15 -2 37 -2 50 0 12 2 0 4 -28 4 -27 0 -38 -2 -22 -4z"/>
<path d="M3433 6753 c9 -2 23 -2 30 0 6 3 -1 5 -18 5 -16 0 -22 -2 -12 -5z"/>
<path d="M3518 6753 c7 -3 16 -2 19 1 4 3 -2 6 -13 5 -11 0 -14 -3 -6 -6z"/>
<path d="M3358 6743 c7 -3 16 -2 19 1 4 3 -2 6 -13 5 -11 0 -14 -3 -6 -6z"/>
<path d="M3615 6739 c-22 -4 -64 -8 -94 -8 -30 -1 -52 -4 -48 -7 3 -4 74 -3
157 1 83 4 150 9 148 11 -8 8 -127 10 -163 3z"/>
<path d="M3798 6733 c7 -3 16 -2 19 1 4 3 -2 6 -13 5 -11 0 -14 -3 -6 -6z"/>
<path d="M4038 6733 c23 -2 61 -2 85 0 23 2 4 4 -43 4 -47 0 -66 -2 -42 -4z"/>
<path d="M4218 6733 c23 -2 61 -2 85 0 23 2 4 4 -43 4 -47 0 -66 -2 -42 -4z"/>
<path d="M4423 6733 c15 -2 39 -2 55 0 15 2 2 4 -28 4 -30 0 -43 -2 -27 -4z"/>
<path d="M4663 6733 c9 -2 25 -2 35 0 9 3 1 5 -18 5 -19 0 -27 -2 -17 -5z"/>
<path d="M3355 6720 l-50 -7 60 -1 c33 0 69 3 80 8 17 7 15 8 -10 8 -16 -1
-52 -4 -80 -8z"/>
<path d="M3943 6723 c9 -2 25 -2 35 0 9 3 1 5 -18 5 -19 0 -27 -2 -17 -5z"/>
<path d="M3573 6693 c9 -2 25 -2 35 0 9 3 1 5 -18 5 -19 0 -27 -2 -17 -5z"/>
<path d="M3270 6670 c35 -11 70 -12 70 -2 0 5 -21 9 -47 9 -37 0 -42 -2 -23
-7z"/>
<path d="M3470 6450 c0 -12 20 -12 75 -1 40 9 39 9 -17 10 -33 0 -58 -3 -58
-9z"/>
<path d="M3590 6418 c0 -4 7 -8 15 -8 8 0 15 4 15 8 0 5 -7 9 -15 9 -8 0 -15
-4 -15 -9z"/>
<path d="M3396 6378 c3 -4 39 -8 81 -8 42 0 74 3 71 6 -9 9 -157 11 -152 2z"/>
<path d="M4570 4631 c0 -5 9 -7 20 -4 11 3 20 7 20 9 0 2 -9 4 -20 4 -11 0
-20 -4 -20 -9z"/>
<path d="M4638 4633 c12 -2 32 -2 45 0 12 2 2 4 -23 4 -25 0 -35 -2 -22 -4z"/>
<path d="M4618 4603 c7 -3 16 -2 19 1 4 3 -2 6 -13 5 -11 0 -14 -3 -6 -6z"/>
<path d="M4713 4593 c9 -2 23 -2 30 0 6 3 -1 5 -18 5 -16 0 -22 -2 -12 -5z"/>
<path d="M4783 4593 c15 -2 37 -2 50 0 12 2 0 4 -28 4 -27 0 -38 -2 -22 -4z"/>
<path d="M5348 4563 c7 -3 16 -2 19 1 4 3 -2 6 -13 5 -11 0 -14 -3 -6 -6z"/>
<path d="M4713 4543 c9 -2 23 -2 30 0 6 3 -1 5 -18 5 -16 0 -22 -2 -12 -5z"/>
<path d="M4628 4463 c7 -3 16 -2 19 1 4 3 -2 6 -13 5 -11 0 -14 -3 -6 -6z"/>
<path d="M5048 4463 c7 -3 16 -2 19 1 4 3 -2 6 -13 5 -11 0 -14 -3 -6 -6z"/>
<path d="M4983 4433 c15 -2 37 -2 50 0 12 2 0 4 -28 4 -27 0 -38 -2 -22 -4z"/>
<path d="M5020 4350 c-22 -7 -21 -8 13 -9 23 -1 36 3 32 9 -7 11 -10 11 -45 0z"/>
<path d="M5108 4343 c6 -2 18 -2 25 0 6 3 1 5 -13 5 -14 0 -19 -2 -12 -5z"/>
<path d="M5168 4323 c7 -3 16 -2 19 1 4 3 -2 6 -13 5 -11 0 -14 -3 -6 -6z"/>
<path d="M4848 4313 c7 -3 16 -2 19 1 4 3 -2 6 -13 5 -11 0 -14 -3 -6 -6z"/>
<path d="M4973 4313 c9 -2 23 -2 30 0 6 3 -1 5 -18 5 -16 0 -22 -2 -12 -5z"/>
<path d="M4688 4293 c7 -3 16 -2 19 1 4 3 -2 6 -13 5 -11 0 -14 -3 -6 -6z"/>
<path d="M4800 4280 c0 -12 -6 -11 100 -12 128 -2 244 1 239 6 -9 10 -339 15
-339 6z"/>
<path d="M4988 4243 c7 -3 16 -2 19 1 4 3 -2 6 -13 5 -11 0 -14 -3 -6 -6z"/>
<path d="M4948 4233 c7 -3 16 -2 19 1 4 3 -2 6 -13 5 -11 0 -14 -3 -6 -6z"/>
<path d="M5038 4223 c12 -2 32 -2 45 0 12 2 2 4 -23 4 -25 0 -35 -2 -22 -4z"/>
<path d="M5353 4203 c9 -2 23 -2 30 0 6 3 -1 5 -18 5 -16 0 -22 -2 -12 -5z"/>
<path d="M5128 4153 c6 -2 18 -2 25 0 6 3 1 5 -13 5 -14 0 -19 -2 -12 -5z"/>
<path d="M5293 4143 c9 -2 23 -2 30 0 6 3 -1 5 -18 5 -16 0 -22 -2 -12 -5z"/>
<path d="M5000 4129 c0 -5 9 -9 20 -9 11 0 20 2 20 4 0 2 -9 6 -20 9 -11 3
-20 1 -20 -4z"/>
<path d="M4838 4123 c6 -2 10 -9 6 -14 -3 -5 0 -9 5 -9 6 0 11 7 11 15 0 8 -8
15 -17 14 -11 0 -13 -3 -5 -6z"/>
<path d="M4913 4123 c9 -2 23 -2 30 0 6 3 -1 5 -18 5 -16 0 -22 -2 -12 -5z"/>
<path d="M5050 4100 l-55 -7 65 -1 c36 -1 72 3 80 8 17 11 1 11 -90 0z"/>
<path d="M4768 4093 c6 -2 18 -2 25 0 6 3 1 5 -13 5 -14 0 -19 -2 -12 -5z"/>
<path d="M4938 4093 c12 -2 30 -2 40 0 9 3 -1 5 -23 4 -22 0 -30 -2 -17 -4z"/>
<path d="M5206 4093 c-4 -5 -35 -11 -69 -14 -59 -6 -58 -6 28 -7 56 -1 85 2
76 7 -11 7 -9 10 10 14 20 4 19 4 -7 6 -17 0 -34 -2 -38 -6z"/>
<path d="M4928 4073 c7 -3 16 -2 19 1 4 3 -2 6 -13 5 -11 0 -14 -3 -6 -6z"/>
<path d="M5048 4073 c7 -3 16 -2 19 1 4 3 -2 6 -13 5 -11 0 -14 -3 -6 -6z"/>
<path d="M11490 7226 c0 -2 8 -10 18 -17 15 -13 16 -12 3 4 -13 16 -21 21 -21
13z"/>
<path d="M11565 7156 c10 -14 19 -26 22 -26 7 0 -17 39 -28 46 -6 3 -3 -5 6
-20z"/>
<path d="M11615 7100 c10 -11 20 -20 23 -20 3 0 -3 9 -13 20 -10 11 -20 20
-23 20 -3 0 3 -9 13 -20z"/>
<path d="M11655 7046 c10 -14 19 -26 22 -26 7 0 -17 39 -28 46 -6 3 -3 -5 6
-20z"/>
<path d="M7381 5554 c0 -11 3 -14 6 -6 3 7 2 16 -1 19 -3 4 -6 -2 -5 -13z"/>
<path d="M7341 5404 c0 -11 3 -14 6 -6 3 7 2 16 -1 19 -3 4 -6 -2 -5 -13z"/>
<path d="M7241 5034 c0 -11 3 -14 6 -6 3 7 2 16 -1 19 -3 4 -6 -2 -5 -13z"/>
<path d="M7181 4804 c0 -11 3 -14 6 -6 3 7 2 16 -1 19 -3 4 -6 -2 -5 -13z"/>
<path d="M7171 4764 c0 -11 3 -14 6 -6 3 7 2 16 -1 19 -3 4 -6 -2 -5 -13z"/>
<path d="M7161 4724 c0 -11 3 -14 6 -6 3 7 2 16 -1 19 -3 4 -6 -2 -5 -13z"/>
<path d="M7141 4654 c0 -11 3 -14 6 -6 3 7 2 16 -1 19 -3 4 -6 -2 -5 -13z"/>
<path d="M7111 4534 c0 -11 3 -14 6 -6 3 7 2 16 -1 19 -3 4 -6 -2 -5 -13z"/>
<path d="M7101 4494 c0 -11 3 -14 6 -6 3 7 2 16 -1 19 -3 4 -6 -2 -5 -13z"/>
<path d="M7081 4424 c0 -11 3 -14 6 -6 3 7 2 16 -1 19 -3 4 -6 -2 -5 -13z"/>
<path d="M7061 4354 c0 -11 3 -14 6 -6 3 7 2 16 -1 19 -3 4 -6 -2 -5 -13z"/>
<path d="M7045 4300 c-4 -17 -5 -34 -2 -36 2 -3 7 10 11 27 8 42 0 50 -9 9z"/>
<path d="M7021 4204 c0 -11 3 -14 6 -6 3 7 2 16 -1 19 -3 4 -6 -2 -5 -13z"/>
<path d="M7005 4150 c-4 -17 -5 -34 -2 -36 2 -3 7 10 11 27 8 42 0 50 -9 9z"/>
<path d="M10701 5991 c-19 -25 -27 -40 -17 -32 20 17 60 71 55 75 -2 2 -19
-17 -38 -43z"/>
<path d="M10424 5007 c27 -31 51 -57 53 -57 7 0 -76 98 -90 107 -7 4 10 -19
37 -50z"/>
<path d="M10719 4648 c35 -43 70 -83 79 -90 9 -7 -12 22 -47 64 -35 43 -70 83
-79 90 -9 7 12 -22 47 -64z"/>
<path d="M10870 4465 c13 -14 26 -25 28 -25 3 0 -5 11 -18 25 -13 14 -26 25
-28 25 -3 0 5 -11 18 -25z"/>
<path d="M6228 4103 c6 -2 18 -2 25 0 6 3 1 5 -13 5 -14 0 -19 -2 -12 -5z"/>
<path d="M6188 4073 c12 -2 32 -2 45 0 12 2 2 4 -23 4 -25 0 -35 -2 -22 -4z"/>
<path d="M6218 4053 c12 -2 32 -2 45 0 12 2 2 4 -23 4 -25 0 -35 -2 -22 -4z"/>
<path d="M11781 4434 c0 -11 3 -14 6 -6 3 7 2 16 -1 19 -3 4 -6 -2 -5 -13z"/>
<path d="M11908 4523 c29 -2 74 -2 100 0 26 2 2 3 -53 3 -55 0 -76 -1 -47 -3z"/>
</g>
</svg>
